/* XPM */
static char *result[] = {
/* columns rows colors chars-per-pixel */
"50 50 194 2 ",
"   c #D5954C",
".  c #DC984F",
"X  c #CB9654",
"o  c #C59B56",
"O  c #CD9B56",
"+  c #C9965B",
"@  c #C7995E",
"#  c #CD9A5B",
"$  c #D49555",
"%  c #DB9752",
"&  c #D59B53",
"*  c #DB9C54",
"=  c #D49759",
"-  c #DB9559",
";  c #D59B5C",
":  c #DB9D5C",
">  c #E29D53",
",  c #E1955B",
"<  c #E29B5D",
"1  c #DCA052",
"2  c #D4A15C",
"3  c #DDA15C",
"4  c #E3A256",
"5  c #E3A35C",
"6  c #EAA65B",
"7  c #E2A95E",
"8  c #E8AB58",
"9  c #F0A758",
"0  c #C49365",
"q  c #CC9663",
"w  c #C69B66",
"e  c #CD9C64",
"r  c #C5946C",
"t  c #CA956B",
"y  c #C49A6A",
"u  c #CC9D6D",
"i  c #D29367",
"p  c #D39D64",
"a  c #DA9D62",
"s  c #D49C6A",
"d  c #DE9F6C",
"f  c #C69B72",
"g  c #CA9D73",
"h  c #C69F78",
"j  c #DD9F73",
"k  c #E29D65",
"l  c #E99F60",
"z  c #E89C68",
"x  c #CCA265",
"c  c #C3A56F",
"v  c #CDA36D",
"b  c #D5A164",
"n  c #DCA464",
"m  c #D5AC66",
"M  c #DDA866",
"N  c #D4A36B",
"B  c #DBA56C",
"V  c #D3AA6C",
"C  c #DDAB6C",
"Z  c #C4A372",
"A  c #CCA373",
"S  c #C7A977",
"D  c #CFAA73",
"F  c #C5A17A",
"G  c #CCA57B",
"H  c #CFAA7C",
"J  c #D3A472",
"K  c #DAA574",
"L  c #D3AA75",
"P  c #DBAB74",
"I  c #D2A57B",
"U  c #DBA479",
"Y  c #D4AB7B",
"T  c #DBAC7B",
"R  c #DDB175",
"E  c #D5B37C",
"W  c #DBB179",
"Q  c #E2A564",
"!  c #EAA567",
"~  c #E3AA64",
"^  c #EAA963",
"/  c #E2A56C",
"(  c #E9A568",
")  c #E2AB6B",
"_  c #EAAC6A",
"`  c #E4B16C",
"'  c #ECB068",
"]  c #E3A571",
"[  c #E1AD72",
"{  c #E9AA71",
"}  c #E3AB7B",
"|  c #E4B273",
" . c #E8B073",
".. c #E3B27C",
"X. c #ECB37C",
"o. c #CDAB81",
"O. c #CEA589",
"+. c #D6A680",
"@. c #DFA484",
"#. c #D3AC84",
"$. c #DBAE83",
"%. c #D3A488",
"&. c #D2AC88",
"*. c #DAAE8A",
"=. c #CFB386",
"-. c #D6B187",
";. c #DDB385",
":. c #D7B882",
">. c #D2B18C",
",. c #DDB389",
"<. c #D5B989",
"1. c #DDB98B",
"2. c #D5B692",
"3. c #DAB791",
"4. c #D7B996",
"5. c #DDBB94",
"6. c #D7BA98",
"7. c #DBBD9E",
"8. c #E5B684",
"9. c #E3B689",
"0. c #E3BB8E",
"q. c #EABC8D",
"w. c #E1B694",
"e. c #E9B794",
"r. c #E6BD95",
"t. c #EBBF92",
"y. c #E3BF9D",
"u. c #D0BFA5",
"i. c #DEBDA1",
"p. c #D6C091",
"a. c #D3C098",
"s. c #E3C38A",
"d. c #E6C095",
"f. c #EAC194",
"g. c #E3C09A",
"h. c #EDC49C",
"j. c #EACA9D",
"k. c #F0C193",
"l. c #F1C49C",
"z. c #FAC69B",
"x. c #F6CA99",
"c. c #F6D29E",
"v. c #DEC3A3",
"b. c #D6C8AE",
"n. c #D7C8B3",
"m. c #D9CAB3",
"M. c #DBD3BC",
"N. c #E3C3A2",
"B. c #E9C5A2",
"V. c #E5CDA1",
"C. c #ECC8A4",
"Z. c #E1C1A8",
"A. c #ECC6AA",
"S. c #E4CBAC",
"D. c #EDC8AB",
"F. c #F3CEA3",
"G. c #F1CAAB",
"H. c #EED2AB",
"J. c #F2D1AA",
"K. c #E4CCB5",
"L. c #EECDB1",
"P. c #F2CFB3",
"I. c #E4D4B0",
"U. c #ECD3B5",
"Y. c #EAD9BD",
"T. c #F4D1B3",
"R. c #F3D5BA",
"E. c #F6DBBB",
"W. c #FFE4B3",
"Q. c #FFE4BB",
"!. c #D6CFC5",
"~. c #D7D4C5",
"^. c #DED1C0",
"/. c #EFD8C6",
"(. c #F4DEC4",
"). c #FFEBC5",
"_. c #FEE5C9",
"`. c #F2E8CD",
"'. c #FFECCB",
"]. c #FFF3CB",
"[. c #EEE9D6",
"{. c #FEE7D5",
"}. c #FFECD3",
"|. c #FFEBDA",
" X c #FFF2D3",
".X c #FFF8D2",
"XX c #FFF5DA",
"oX c cornsilk",
"OX c #FFF0E0",
"+X c #FFFCE3",
"@X c #FFFBEC",
"#X c #FFFCF3",
"$X c #FDFCFC",
"%X c None",
/* pixels */
"%X%X%X%X%X%X%X%X%X%X%X%X%X%X%X%X%X%X%X%X%X%X%X%X%X%X%X%X%X%X%X%X%X%X%X%X%X%X%X%X%X%X%X%X%X%X%X%X%X%X",
"%X%X%X%X%X%X%X%X%X%X%X%X%X%X%X%X%X%X%X%X%X%X%X%X%X%X%X%X%X%X%X%X%X%X%X%X%X%X%X%X%X%X%X%X%X%X%X%X%X%X",
"%X%X%X%X%X%X%X%X%X%X%X%X%X%X%X%X%X%X%X%X%X%X%X%X%X%X%X%X%X%X%X%X%X%X%X%X%X%X%X%X%X%X%X%X%X%X%X%X%X%X",
"%X%X%X%X%X%X%X%X%X%X%X%X%X%X%X%X%X%X%X%X%X%X%X%X%X%X%X%X%X%X%X%X%X%X%X%X%X%X%X%X%X%X%X%X%X%X%X%X%X%X",
"%X%X%X%X%X%X%X%X%X%X%X%X%X%X%X%X%X%X%X%X%X%X%X%X%X%X%X%X%X%X%X%X%X%X%X%X%X%X%X%X%X%X%X%X%X%X%X%X%X%X",
"%X%X%X%X%X%X%X%X%X%X%X%X%X%X%X%X%X%X%X%X%X%X%X%X%X%X%X%X%X%X%X%X%X%X%X%X%X%X%X%X%X%X%X%X%X%X%X%X%X%X",
"%X%X%X%X%X%X%X%X%X%X%X%X%X%X%X%X%X%X%X%X%X%X%X%X%X%X%X%X%X%X%X%X%X%X%X%X%X%X%X%X%X%X%X%X%X%X%X%X%X%X",
"%X%X%X%X%X%X%X%X%X%X%X%X%X%X%X%X%X%X%X%X%X%X%X%X%X%X%X%X%X%X%X%X%X%X%X%X%X%X%X%X%X%X%X%X%X%X%X%X%X%X",
"%X%X%X%X%X%X%X%X%X%X%X%X%X%X%X%X%X%X%X%X%X%X%X%X%X%X%X%X%X%X%X%X%X%X%X@X#X%X%X%X%X@X%X%X%X%X%X%X%X%X",
"%X%X%X%X%X%X%X%XK.%X%X$X@X_.U.%X%X%X%X%X%X%X%X%X%X%X%X%X@XXX%X|.$X%X@XY.Y.#X$X#X`.I.XX#X%X%X%X%X%X%X",
"%X%X%X%X%X%X%X5.Y =.U.oXF.L W 0.%X%X1.D 1.%X%X%XE T i.XXE.E L ,.[.+Xd.T E v.@X`.<.L 1._.@X%X%X%X%X%X",
"%X%X%X%X%X%X%XK ..L 5.]...7 _ B %XJ.V ` b q.%XD ) ` I '.c.m _ / b.).K '  .#.}.7.V ~ b C.@X%X%X%X%X%X",
"%X%X%X%X%X%X%X$.) T 3.%X..( ! / %XH.E ` B d.%X:.m ) %.'.j.m ~ C ^.'.} ( M $.|.A.P ' V T.@X%X%X%X%X%X",
"%X%X%X%X%X%X%XU ] K 7.%X9.Q { U %X%XS P P %X%X=.V P O.%XV.m C K ~.}.U ( ] O.OXZ.L m N R.$X%X%X%X%X%X",
"%X%X%X%X%X%X%XP ) L 6.%X9.M / K %X%XH R N w.%XH ` B %.{.C.m n / ~._.] ^ / #.}.N.P ~ s L.$X%X%X%X%X%X",
"%X%X%X%X%X%X%Xb 7 m p.%XW ) M J %X%XP 7 / z.%XT 7 ! @.'.x.~ 6 z M.'.M 9 5 T XXt.m 8 M J.#X%X%X%X%X%X",
"%X%X%X%X%X%X,.Q 6 3 K h.K 5 Q n r.T n ^ 3 } q.K n ) N 8.X.Q M N -.0.B 5 6 Q q.$.N 7 ~ +.{.$X%X%X%X%X",
"%X%X%X%X%X%Xh = 4 M u f N & ~ p h u ; < Q e y u b n N v p = M N F f p * 4 = u A e 3 a f /.#X%X%X%X%X",
"%X%X%X%X%X%X5.a 5 ) I B.K 3 ) b y.,.N ~ Q ..h.A B B J f.} a ) V <.h.s 5 ^ / l.#.b ) b *.|.%X%X%X%X%X",
"%X%X%X%X%X%X%Xp 7 m ,.%XT n ) p %X%XN ~ 2 f.].D V [ A ).z.b P x S.'.J Q ^ V ].g.A ~ B G.@X%X%X%X%X%X",
"%X%X%X%X%X%X%XN Q P 3.'.T b _ B %X%Xe ) C r.'.G V ..Z ).k.b | x K.).L M ~ L '.y.v ` B G.#X%X%X%X%X%X",
"%X%X%X%X%X%X%XP ) W 6.}.;.C  .V %X%XY [ P f.'.-.T R Y ).l.B ..P K.'.Y ) ` T '.v.D ` V D.%X%X%X%X%X%X",
"%X%X%X%X%X%X%XJ ) L 4.oX$.) C b %X%XL ) p d. X-.T V H ).F.K C V m.%XI M ) L  Xv.Y ` b T.%X%X%X%X%X%X",
"%X%X%X%X%X%X%XJ | A 2. X$.) ~ N %X%Xv _ B 1. Xo.P } f ).l.V ) b m.%XI ) M L  Xi.D ) p L.%X%X%X%X%X%X",
"%X%X%X%X%X%X%XJ C L &.XXT M ) # %X%XN ~ b 5.}.o.P V A ).h.B / ; m.%XJ ~ M A XX7.J ~ p D.%X%X%X%X%X%X",
"%X%X%X%X%X%X%Xs C J >. XT M ~ ; %XL.J ~ 2 9.}.o.P C A ).h.N ) 2 m.%XJ ! n A %X7.v ~ a D.%X%X%X%X%X%X",
"%X%X%X%X%X%X%XJ M N >. XU Q ~ ; %XU.N ~ : 0.].o.B M g ).h.N Q & %X%Xs 7 3 A %X7.N 7 = G.%X%X%X%X%X%X",
"%X%X%X%X%X%XR.s n v &. XT 3 5 # %XU.p 6 = 9. Xo.N b u ).h.N 5 & m.%XJ 4 3 u %X7.x 8 = D.%X%X%X%X%X%X",
"%X%X%X%X%X%XR.s a b &. XT 3 3 # %XT.e 4 - 9. XG b n y ).C.s 3   %X%Xp 4 3 g %X7.e 4 = D.%X%X%X%X%X%X",
"%X%X%X%X%X%X%Xp n e &. XK - 3 O %X%X+ > & 9. XG p b y ).B.e 3   %X%Xp % 4 A %X7.e 1 = A.%X%X%X%X%X%X",
"%X%X%X%X%X%X%Xq 3 e #. XK ; : + %X%X+ > & ,.%XF e b y '.g.q a   %X%Xp % 1 g %Xi.@ 4 $ A.%X%X%X%X%X%X",
"%X%X%X%X%X%X%Xq : e &. XJ # 2 + %X%X+ > % ,.%XF p b y '.B.q : & %X%Xp % 1 f %X7.@ * X A.%X%X%X%X%X%X",
"%X%X%X%X%X%X%XX * w =.].L # 2 o %X%Xo 1 = e.%Xh ; 2 w %X%X0 n   %X%Xi , : c %Xv.r k   B.%X%X%X%X%X%X",
"%X%X%X%X%X%X%X& 1 b o.Q.K ; 3 O %X%X# 3 - 8.Q.v ; : e %X%X# : % a.%Xs < * x W.6.u k % t.%X%X%X%X%X%X",
"%X%X%X%X%X%X%X& > a y +.s - 3 = G A i : - p x x : d t H v O - , A J s , > & N h t n $ e R.#X%X%X%X%X",
"%X%X%X%X%X%X%Xa Q B g g j k ( : Z Z N d k b x v B j g G x ; Q k v g s ( 4 * 2 v N B : e E.#X%X%X%X%X",
"%X%X%X%X%X%X%XB { %X%X%X%X{ / d %X%XY } p 8.W.v P j +.%Xs.m / B %X%XP / 5 M %X1.I C m f.%X%X%X%X%X%X",
"%X%X%X%X%X%X%XJ [ %X%X%X%X] ) p %X%XD C N f..XH P B I %X%XV ] a %X%XC ( Q P %X%XL M n G.%X%X%X%X%X%X",
"%X%X%X%X%X%X%X%X| %X%X%X%X) ` %X%X%XV C ) t.%X,.C ) Y %X%XK  .M %X%X%X^ ~ -.%X%X%X' ) %X%X%X%X%X%X%X",
"%X%X%X%X%X%X%X%XW %X%X%X%XC ` %X%X%X%X| } %X%X#.| | Y %X%X%X| %X%X%X%X_ [ %X%X%X%X) C %X%X%X%X%X%X%X",
"%X%X%X%X%X%X%X%X%X%X%X%X%X%X%X%X%X%X%X%X%X%X%X%X%X%X%X%X%X%X%X%X%X%X%X%X%X%X%X%X%X%XT %X%X%X%X%X%X%X",
"%X%X%X%X%X%X%X%X%X%X%X%X%X%X%X%X%X%X%X%X%X%X%X%X%X%X%X%X%X%X%X%X%X%X%X%X%X%X%X%X%X%X%X%X%X%X%X%X%X%X",
"%X%X%X%X%X%X%X%X%X%X%X%X%X%X%X%X%X%X%X%X%X%X%X%X%X%X%X%X%X%X%X%X%X%X%X%X%X%X%X%X%X%X%X%X%X%X%X%X%X%X",
"%X%X%X%X%X%X%X%X%X%X%X%X%X%X%X%X%X%X%X%X%X%X%X%X%X%X%X%X%X%X%X%X%X%X%X%X%X%X%X%X%X%X%X%X%X%X%X%X%X%X",
"%X%X%X%X%X%X%X%X%X%X%X%X%X%X%X%X%X%X%X%X%X%X%X%X%X%X%X%X%X%X%X%X%X%X%X%X%X%X%X%X%X%X%X%X%X%X%X%X%X%X",
"%X%X%X%X%X%X%X%X%X%X%X%X%X%X%X%X%X%X%X%X%X%X%X%X%X%X%X%X%X%X%X%X%X%X%X%X%X%X%X%X%X%X%X%X%X%X%X%X%X%X",
"%X%X%X%X%X%X%X%X%X%X%X%X%X%X%X%X%X%X%X%X%X%X%X%X%X%X%X%X%X%X%X%X%X%X%X%X%X%X%X%X%X%X%X%X%X%X%X%X%X%X",
"%X%X%X%X%X%X%X%X%X%X%X%X%X%X%X%X%X%X%X%X%X%X%X%X%X%X%X%X%X%X%X%X%X%X%X%X%X%X%X%X%X%X%X%X%X%X%X%X%X%X",
"%X%X%X%X%X%X%X%X%X%X%X%X%X%X%X%X%X%X%X%X%X%X%X%X%X%X%X%X%X%X%X%X%X%X%X%X%X%X%X%X%X%X%X%X%X%X%X%X%X%X",
"%X%X%X%X%X%X%X%X%X%X%X%X%X%X%X%X%X%X%X%X%X%X%X%X%X%X%X%X%X%X%X%X%X%X%X%X%X%X%X%X%X%X%X%X%X%X%X%X%X%X"
};
