/* XPM */
static char *f7637c5476794685ccc2a122c1596f8daOrjWwUGNYfdokJS[] = {
/* columns rows colors chars-per-pixel */
"25 50 169 2 ",
"   c None",
".  c #3F2815",
"X  c #3C2719",
"o  c #3E0921",
"O  c #3F0525",
"+  c #60180F",
"@  c #64181C",
"#  c #442B18",
"$  c #5D2614",
"%  c #63201F",
"&  c #6C221A",
"*  c #702F1C",
"=  c #410625",
"-  c #430B24",
";  c #490B25",
":  c #46062A",
">  c #4A072C",
",  c #460D29",
"<  c #4D082D",
"1  c #52092D",
"2  c #590C2F",
"3  c #570A27",
"4  c #491824",
"5  c #4B142B",
"6  c #441126",
"7  c #591620",
"8  c #53122D",
"9  c #531829",
"0  c #4F0630",
"q  c #550A32",
"w  c #5B0A33",
"e  c #5F0939",
"r  c #520731",
"t  c #481F34",
"y  c #571936",
"u  c #791924",
"i  c #620C37",
"p  c #680C37",
"a  c #650B3A",
"s  c #6B0D3D",
"d  c #611336",
"f  c #70143F",
"g  c #552324",
"h  c #5A242E",
"j  c #592524",
"k  c #453021",
"l  c #4D2636",
"z  c #5A2232",
"x  c #6F342E",
"c  c #763525",
"v  c #612732",
"b  c #7A263E",
"n  c #65393D",
"m  c #5E4227",
"M  c #764D30",
"N  c #794434",
"B  c #7F5536",
"V  c #6E0D42",
"C  c #750F43",
"Z  c #7F0E4A",
"A  c #6C1040",
"S  c #771146",
"D  c #7C1347",
"F  c #7A1946",
"G  c #7D124B",
"H  c #513947",
"J  c #6B2E4B",
"K  c #6C3B48",
"L  c #703F4A",
"P  c #7C3D59",
"I  c #5F584C",
"U  c #5E5A52",
"Y  c #585556",
"T  c #6E4444",
"R  c #744347",
"E  c #69504D",
"W  c #635C55",
"Q  c #7A6B6D",
"!  c #8E211A",
"~  c #9C291D",
"^  c #872428",
"/  c #923F29",
"(  c #952430",
")  c #A62B20",
"_  c #B02E3B",
"`  c #C53329",
"'  c #82134B",
"]  c #8C184E",
"[  c #871552",
"{  c #8C1452",
"}  c #8F1957",
"|  c #8E1558",
" . c #911656",
".. c #921856",
"X. c #941559",
"o. c #9B155C",
"O. c #941859",
"+. c #9C1A5E",
"@. c #8E204E",
"#. c #AE2A5F",
"$. c #A6355F",
"%. c #BA3456",
"&. c #9D1B61",
"*. c #A81767",
"=. c #A41B63",
"-. c #AA1C67",
";. c #AD1D6A",
":. c #B21E6D",
">. c #B51F72",
",. c #BA1F72",
"<. c #99356A",
"1. c #A62063",
"2. c #AA2467",
"3. c #AA2B62",
"4. c #AC206A",
"5. c #AC2968",
"6. c #B3216E",
"7. c #BA2A6F",
"8. c #B42E6F",
"9. c #AD3663",
"0. c #AF306B",
"q. c #BC346D",
"w. c #BB3B6D",
"e. c #B62171",
"r. c #BB2274",
"t. c #BC2B71",
"y. c #BE2279",
"u. c #B13071",
"i. c #C22F6C",
"p. c #C13968",
"a. c #C22475",
"s. c #C22A75",
"d. c #C4247B",
"f. c #CA277E",
"g. c #C7297A",
"h. c #CF2B7C",
"j. c #C33078",
"k. c #CE387E",
"l. c #C63774",
"z. c #865357",
"x. c #BD4C4C",
"c. c #9E654E",
"v. c #A9704C",
"b. c #B4744B",
"n. c #BC7653",
"m. c #BC416C",
"M. c #AD797C",
"N. c #E34D53",
"B. c #C44A67",
"V. c #D66872",
"C. c #DD7E73",
"Z. c #E26C7D",
"A. c #E77E76",
"S. c #E67C7A",
"D. c #A88670",
"F. c #BF8B7E",
"G. c #D28B68",
"H. c #D29167",
"J. c #CE2981",
"K. c #CC2683",
"L. c #D32B83",
"P. c #B95087",
"I. c #C55983",
"U. c #DB5E9F",
"Y. c #B18B95",
"T. c #CF8B9F",
"R. c #CEBBA8",
"E. c #F3CEB7",
"W. c #EBD4BF",
/* pixels */
"                                                  ",
"                                                  ",
"                    w.u.4.                        ",
"                  q.K.y.6.&.                      ",
"                L.J.K.>.;.&.} @.                  ",
"              L.L.K.t.>.;.&.| [ F                 ",
"            h.L.K.y.e.*.&.| [ G S f               ",
"          J.L.g.r.>.;.&.&.| G A S A y             ",
"        s.K.d.r.e.4.=.O.[ G V a i w i 8           ",
"      5.g.d.r.r.6.4.=...G V e e w 3 2 2           ",
"      t.d.y.r.e.6.4.=.} D s e q q 1 1 1 9         ",
"      s.y.,.r.>.;.-.+.[ S i q q q < < > ,         ",
"    9.a.y.r.e.:.;.=...' s w q 1 q 1 < > ; ,       ",
"    0.d.r.r.e.;.;.&.| S s w q 1 1 < < > ; 6       ",
"    8.d.r.6.;.;.=.o.' V w q q 1 0 0 1 < : -       ",
"    t.a.r.6.;.=.o. .' a w 1 1 1 1 < < < : -       ",
"    7.a.,.:.=.=.+.{ S i r 3 1 1 1 < < < : -       ",
"    7.a.,.:.=.=.+. .D p 2 1 1 < < < < < : -       ",
"    7.r.:.=.=.1.&. .Z p 3 1 1 1 r , , 0 > ,       ",
"    7.:.;.-.=.=.+...' p r 1 1 1 0 0 0 , , -       ",
"    q.6.;.=.=.=.&...] p 1 1 1 1 0 0 0 < O         ",
"      #.;.*.=.=.&.O.{ p 1 1 1 > 0 , < : ,         ",
"        3.;.=.=.+.+. .C r 3 1 1 0 , 0 ,           ",
"          5.;.=.=.&.o.' w 1 > 1 0 , <             ",
"          9.1.-.-.=.=. .i 3 1 < < > ;             ",
"            3.4.:.;.;.+.p < 3 > < >               ",
"              8.e.:.:.-.S 1 1 < ; ;               ",
"              I.r.r.:.:.{ 2 1 3 1 6               ",
"            E.T.r.r.r.y.&.p w f i t               ",
"            W.Y.8.a.y.d.:.C p ] F H W             ",
"            R.Q <.y.,.d.r.' p ' J Y U             ",
"            D.E <.:.=.:.:.f r : l U I             ",
"                8.+.X.X.{ i : O -                 ",
"              p.:.o.{ ' V 0 : : ,                 ",
"              i.:.X.Z V a 0 : : -                 ",
"            m.a.*.{ s p w 0 > > = 4               ",
"            V.s.1.%._ ( ^ ^ u 3 = o               ",
"            A.Z.B.N.` ) ~ ~ ! 3 = =               ",
"            C.S.Z.x.^ & @ @ @ ; , 5 j             ",
"              m.$.b 9 j 7 5 8 2 z z               ",
"              U.P.R n x % h h v z z               ",
"            Y.M.z.n R   + g h y y y               ",
"                      / & g R R L K R             ",
"                      G.c N                       ",
"                    n.H.* c.v.        m           ",
"          #             $ N     b.  B k           ",
"          .                         M #           ",
"          #                           #           ",
"                                                  ",
"                                                  "
};
