/* XPM */
static char *_646091603924[] = {
/* columns rows colors chars-per-pixel */
"50 50 222 2 ",
"   c #6E3316",
".  c #6A341A",
"X  c #7A3B15",
"o  c #793F20",
"O  c #7D441C",
"+  c #844216",
"@  c #87431A",
"#  c #8D4B1A",
"$  c #834818",
"%  c #934E1A",
"&  c #8F551E",
"*  c #9A571D",
"=  c #9D5B1F",
"-  c #834B22",
";  c #864B29",
":  c #8F5123",
">  c #8E552E",
",  c #8F5A2D",
"<  c #855329",
"1  c #955925",
"2  c #9D5D26",
"3  c #955B29",
"4  c #9A5D2B",
"5  c #91552C",
"6  c #8E5D33",
"7  c #945D33",
"8  c #955F39",
"9  c #995D35",
"0  c #9D622C",
"q  c #98662C",
"w  c #946437",
"e  c #9A6335",
"r  c #9E6C34",
"t  c #94633A",
"y  c #9C653A",
"u  c #9A693B",
"i  c #A26125",
"p  c #A3652C",
"a  c #A46A2D",
"s  c #A96E2E",
"d  c #A6712E",
"f  c #A26535",
"g  c #A86732",
"h  c #A36B34",
"j  c #AA6C34",
"k  c #A46739",
"l  c #A46B3B",
"z  c #AA6E3A",
"x  c #B06F36",
"c  c #AA7334",
"v  c #A5723C",
"b  c #AC743B",
"n  c #AE7A3E",
"m  c #AE7A36",
"M  c #B27235",
"N  c #B3743C",
"B  c #B9763C",
"V  c #B47A3D",
"C  c #BA7B3E",
"Z  c #9D6741",
"A  c #9D6C44",
"S  c #946946",
"D  c #9D7245",
"F  c #A26E43",
"G  c #A96C44",
"H  c #A26E48",
"J  c #B16F42",
"K  c #A57343",
"L  c #AD7543",
"P  c #AE7B45",
"I  c #A47549",
"U  c #A57A4C",
"Y  c #AC7B4C",
"T  c #A77748",
"R  c #B37542",
"E  c #B87644",
"W  c #B47B43",
"Q  c #BA7C43",
"!  c #B47D4B",
"~  c #BB7D4A",
"^  c #B07549",
"/  c #AD7B51",
"(  c #B67D52",
")  c #C27E44",
"_  c #C07C4B",
"`  c #AE813F",
"'  c #B9803E",
"]  c #AE8141",
"[  c #AD824D",
"{  c #B48245",
"}  c #BC8245",
"|  c #B4824C",
" . c #BC844B",
".. c #B78A4B",
"X. c #BD8A4D",
"o. c #B58942",
"O. c #AD8655",
"+. c #B58454",
"@. c #BB8652",
"#. c #B48955",
"$. c #BC8B55",
"%. c #B5895A",
"&. c #BC8D5B",
"*. c #B68658",
"=. c #BB925C",
"-. c #BF9959",
";. c #B68D61",
":. c #BD8E62",
">. c #B68460",
",. c #BD9162",
"<. c #BF9863",
"1. c #BF9868",
"2. c #C28346",
"3. c #C2854B",
"4. c #C38B4D",
"5. c #CA8C4D",
"6. c #C58949",
"7. c #D08F4B",
"8. c #C6914E",
"9. c #C9904D",
"0. c #D69A4F",
"q. c #C38651",
"w. c #C48C53",
"e. c #C98D53",
"r. c #C38E5A",
"t. c #CB8E5B",
"y. c #C18559",
"u. c #C59255",
"i. c #CB9255",
"p. c #CC9956",
"a. c #C5935A",
"s. c #CB955B",
"d. c #C7995A",
"f. c #CC9A5C",
"g. c #C69956",
"h. c #D29455",
"j. c #D49956",
"k. c #D2975A",
"l. c #D39B5D",
"z. c #D99D5D",
"x. c #CDA45F",
"c. c #D4A25D",
"v. c #DCA25F",
"b. c #DCA85E",
"n. c #C48C63",
"m. c #C29363",
"M. c #CA9761",
"N. c #C59A64",
"B. c #CC9B63",
"V. c #C59C6B",
"C. c #CA9C6D",
"Z. c #C29668",
"A. c #D39D62",
"S. c #D99E63",
"D. c #D49F69",
"F. c #C69E72",
"G. c #CDA163",
"H. c #C5A26B",
"J. c #CDA46B",
"K. c #CFAA6F",
"L. c #D4A264",
"P. c #DAA365",
"I. c #D5AA65",
"U. c #DBAB65",
"Y. c #D5A36A",
"T. c #DBA56A",
"R. c #D6AA6B",
"E. c #DCAB6C",
"W. c #DCB26D",
"Q. c #D7B069",
"!. c #C6A675",
"~. c #CCA373",
"^. c #CDAA75",
"/. c #CEAC7C",
"(. c #C8A47C",
"). c #D1A672",
"_. c #D4AA74",
"`. c #DDAC72",
"'. c #D3AB7A",
"]. c #DCAE7A",
"[. c #D2A678",
"{. c #D5B175",
"}. c #DDB174",
"|. c #D6B17B",
" X c #DBB27B",
".X c #E2A665",
"XX c #E1A965",
"oX c #E2A76A",
"OX c #E2AB6C",
"+X c #E3B06D",
"@X c #E1AD73",
"#X c #E4AC75",
"$X c #E3B274",
"%X c #E3B47A",
"&X c #E8B77C",
"*X c #E5BA7E",
"=X c #EAB97D",
"-X c #E1BA73",
";X c #CAAF85",
":X c #D2AC81",
">X c #DCAD81",
",X c #CFB58A",
"<X c #D5B284",
"1X c #DBB483",
"2X c #DDBA84",
"3X c #D4B48C",
"4X c #DDB689",
"5X c #DFBA8C",
"6X c #DFBF90",
"7X c #E1B681",
"8X c #E9B581",
"9X c #E4BB83",
"0X c #E9BC83",
"qX c #E4BD8B",
"wX c #EBBA8B",
"eX c #D2BFA9",
"rX c #E7C086",
"tX c #E5C18D",
"yX c #E6C692",
"uX c #EBC694",
"iX c #E9C895",
"pX c None",
/* pixels */
"pXpXeXpXpXpXpXpXpXpXpXpXpXpXpXpXpXpXpXpXpXpXpXpXpXpXpXpXpXpXpXpXpXpXpXpXpXpXpXpXpXpXpXpXpXpXpXpXpXpX",
"pXpX<. .pXpXpXpX$. .=.pXpXpX;.}  .pXpXpXpXD.~.pXpXpXpXr q pXpXpXpXh f.pXpXpXpX>.z d.pXpXpXpX}. XpXpX",
"pXF.f.i.4.pXpX,.p.4.u.pXpXpXs.2. .&.pXpXf.P.C.^.pXpXw 0 1 1 pXpXy a U.$XpXpXpXM.C s.[.pXpX`.}.T.~.pX",
"!.f.A.M.5.@.pX4.g.$.w.C.pXM.s.$.X.q.pXB.l.L.I.f.=.[ V r & 0 h pXi p [.&X XpXT.A.w.R.E.pX$X}.`.i.C =.",
"V.f.s.B.5.! <.w.w.X.9.J.(.M.e.e.@.~ Z.B.B.T.T.f.u.| W 0 2 i { P j W A.`.}.pXR.A.s.`.L.qX&X#X@Xz.{ g.",
"V.A.A.B.5.P V.a.n 5.e.C.:Xa.B t.q.E :.D.D.P.L.s.a.| v 4 a j  .| M 3.D.E.}.pX$XD.L.$XT.5X&X*X$XL.X.f.",
"=.f.L.A.Q z :. .j Q e.B.6Xw.M 3.E j :.Y.Y.A.L.a.&.#.j 4 g n ..*.N A.%X#X}.pXR.L.T.`.T.4X&X%X$XT.i.G.",
"O.N.B.f.Q z *.~ M B 3.B.^.w.B ~ R z %.D.C.l.B.$.+.D h f j v ! Y b S.%XE.E.~.J.Y.`.oXT.'.7X@X%XE.f.B.",
"[ X.#.s.v v F K g W n B.%.X.M Q ^ j D r.( s.a.T Y v h u W W L w P &._.| Y.%.C.#.Y.$.a.N.].B. XE.a.M.",
"&.i.d.w.V R ,.L z Q } B.^.4.x Q 4.N / d.$.s.B.N.N.$.W T 3.X.! *.a.T.@XY.}.(._.].`.Y.Y.1X9X X XE.a.p.",
"#.p.f.~ C X.V.P M V 2.f.|.4.V Q e.3.n.$.u.i.c.L.f.&.V j V  .| m.i.@X$XE.}.<X].`.P.#X`.tX0X&X XR.a.f.",
"o.w.w.! 4.s.C.w.3.V { g.pX6.q.w.t.e.m.X.=.6.l.T.N.{ m j V } b m.l.@X@XoX%X4XD.z.A.@X X0X%X%X}.P.a.N.",
"| @.X.! p.`.).w.5.Q Q g.pX8.w.4.w.i.,.w.=.9.c.R.=. .m a Q  .V &.l.}.@XE.%X>XY.l.L.$X@X8X}.`.E.P.f.B.",
"x.d.u.@.L.2X Xu.w.2. .f.pX8.w.}  .r.,. .{ X.c.T.C. .c j } } Q +.s.#X$XE.@X[.B.i.S.%X%X0X=X#XW.R.B.B.",
"G.s.W ^ L.2X1Xw.4.2.4.G.|.f.4.} E w.*.L Y V l.T.L.Q d j } { n $.w.E.`.T.@X[.B.l.L.%X%XtXrX$X].L.B.B.",
"[.A.Y X.P.rX1X} 2.} 9.L.2XB.Q C l 4.&.@.| C l.L.G.~ d N } Q b +.4.}.$XT.`.]._.S.L.$X*XyXrX$X`.G.u.f.",
"1XD.U ! L.7X1XV 2.2.4.Y.qXf.V R u 3.+.X.X.} l.L.f.E d ~ 6.} b #.q.`.*X@XR.F.J.L.`.*X XyXrX+XE.u.b T ",
"7XY.A 8 f.*X'.V 2.6.9.R.2Xf.C W y Q Y @.g.5.l.L.B.j a W  .V n u.w.L.%X$XY.(.J.B.]. X*XiXrX+XE.u.{ @.",
"5XL.Y T A.%X_.Q 3.2.6.G.<Xs.C B 9 v U X.w.5.z.A.R.v 0 n Q b v m.u.T.$X@XY.;X!.).7X9X XuX*XU.}.f.u.p.",
"qXP.$.{ A.`.K.C 3.q.8.m.'.f.C B e  .O.4. .6.P.T.`.W b W R z c C.A.T.@X@X X3X/.'.7X9X*XuX$XU.$XA.g.x.",
"3Xl.3.3.L.E.J.{ 4.u.i.d./.f.) Q y r.&.Q Q 6.oXP.`.{ z b V v M C.f.#X#XE. X,X<X].7X8X XqX}.U.%Xl.u.f.",
"1XA.w.w.I.E.B.C 5.4.w.g.^.B.2.V e 4.pXC Q 5.P.L.`.o.z q h P m m.f.`.@XOX%X<X'.'. X0X}.2XE.E.#XA.w.f.",
"2XP.4.g.U.T.C.} e.4.w.f.pXc.5.W 9 @.pXc V w.c.c.Y.o.z q b L c <.B.E.@XT.%X1X^.).%X*X}.qXU.E.%XS.i.B.",
" XP.$.i.c.L.B.3.5.i.e.x.pXp.2.M 8 s.pXM V 5.l.l.Y.] g d V W c #.s.$X$X@X}.1XE.B.E.-X}.5XW.@X$XS.w.A.",
"{.P.X.f.P.E.C.5.6.i.t.l.pXf.5.v 6 s.a.} Q i.c.A.Y.o.g s V { b &.w.E.`.#X}.7XP.B.P.$X`.7XR.OX}.s.@.B.",
"I.l.' i.oX$XG.4.i.s.i.l.pXz.i.b > s.m.W W t.T.Y.[.3.p j W  .v #.{ T.&X`.-X XL.s.P.@X`.>XU.T.E.p.u.B.",
"x.l.' q.T.E.H.8.3.w.4.k.pXi.4.h > s.n.N W 4.A.T.`.Q g j ] W v =.w.`.=X@X}.].L.a.l.oXE.>XXX.X$Xl.s.B.",
"-.t.s } P.`.G.u.5.5.w.z.pXl.5.h > s.m.g c ~ l.L.B.V p j Y n v N.f.`.&X$XQ.}.L.*.l.oX$XwXOXP.$XA.l.Y.",
"-.6.a Q A.}.J.u.9.4.w.l.pXk.s.c 5 4.&.p c } i.9.s.m 2 j n h W m.w.`.=X#XE.'.f.@.A.U.%XwXU.P.$Xl.s.M.",
"H.e.j Q h.E.Q.f.u.w.{ f.pXh.s.z 9 6.@.s b } 4.5.t.` 0 d n h h Z.s.E.=X@X}.'.G.A.P.E.}.0XU.U.$XL.d.B.",
"^.i.M V 9.R.{.P.4.4.4.l.pXi.r.z y } ~ M c } 4.9.s.` p c W b h m.r.`.0XE.I. XR.L.P.$X%X0XU.oX`.L.B.s.",
"_.i.V V } L.^.f.X.4.s.l.pXs.r.P Z V ! Q b 2.9.5.s.n p m { R l C.s.E.*XP.I.}.R.L.R.$X$X8XXXT.$XA.M.d.",
"^.k.Q N 3.L.R.l.w.w.l.G.pXi.i.! l Q | 3.Q  .i.j.s.v i b R c y m.q.L.$XL.c. XQ.P.U.$X$X%Xb.P.$XL.a.u.",
"{.z.~ N ~ T.`.L.X.w.l.J.pXX. .L y V P e.u.s.l.L.B.l * n { c e $.} D.@XA.I.1XQ.T.U.$X$X#Xc.P.$XL.d.f.",
"^.z.3.b Q A.`.A.~ w.s.L.^.} 3.K e V | l.L.T.P.z.f.u * n { h e +.3.A.`.A.L.4XR.L.E.E.W.#Xb.P.OXL.d.M.",
"J.A.q.Q 4.B.`.P.w.q.e.f.^.w.t.*.I 5.&.A.R.oXl.h.w.v i L ~ h l +.} L.@XA.R.3XB.L.$XoXE.8XXXP.R.l.w.r.",
"J.l.w.R 6.a.).T.f.t.q.i.^.a.t.&.Z ~ @.A.T.P.i.p.r.K p L W c 8 &.s.P.oXT.I.:XR.E..XP.oX&X.XP.OXA.w.! ",
"R.l.w.L C *.C.T.A.s.} 4.J.d.t.&.H Q @.L.A.l.j.l.s.I e L } L y D.P.S..X@XE.[.f.A.z.l.P.%XP.U.oXi.q.w.",
"J.f.w.~ 2.r.[.L.A.e.3.q.V.u.t.&./ } @.f.s.p.l.l.M.T f W R z F L.P.oXT.@XW.'.L.A.v.z.S.#XOXOXOXj.t.w.",
"J.l.w.{ E +._.L.t.4.e.6.m.q.q.&.H R *.A.e.h.s.l.s.P k n c z R L.S.P.oXOXW.].I.T.T..XS.#X+X@XOXk.e.w.",
"Y.A.w.| R D F.A.4.3. .2.m.q.y.w.A R %.s.i.5.i.s.u...R v c R Q S.l.U.oXoXR._.P.oXP.P.S.#X#XOX.Xh.q.r.",
"[.S.a.@.W S 1.w.~ ~ ~ 2.Z. .w.$.Z Q %.i.i.e.e.l.s.V k h j z W A.j.P.OXP.U.`.I.P.S.l.T.`.oX@Xz.e.q.r.",
"N.3.r. .! t N.w.E Q ~ 2.Z.~ X.*.t ~ &.s.l.j.e.l.M.m 4 i i g g A.l.P.U.A.Q.pXc.A.l.k.A.#XoXL.j.6.q. .",
"O.b $. .^ S F.q.E _ ~ q.F.( 3.@.e ~ :.P.T.S.7.q.r.b 3 * 2 2 7 A.l.z.c.l.U.pXl.s.k.k.z.@XS.T.z.7.3.{ ",
"[ n +.~ ! F ~.a.~ _ E q.~.y.q.@.G ~ :.P.P.v.i.q.r.E 3 % # & - m.5.e.l.h.c.pXl.l.A.k.S.#Xk.T.v.6.} ~ ",
"I c ! X.~ ^ N.q.E E R ~ /.n.y.~ ^ ~ :.A.P.j.2.} @.g : # @ + o (  .h.l.j.x.pXp.z.S.k.h.S.h.P.z.) Q E ",
"w u ! } E T | *.L J J ~ N.r.! R ^ ^ ( B.s.i.} R G y : @ + X . H W i.j.p.g.p.f.s.k.e.X.s.i.l.z.3.^ ^ ",
"3 3 F ( e F u l 9 z z R | @.9 G G 8 K @.X.} ~ f e < # - +   . 6 b R h.E P | e.K  .X.L W u.e.k._ g R ",
"t 4 / ^ k l Y l l k k ^ &. .R y e z T r.l.l.Q J k : $ - X   . 8 E e.5.5.t.a.a.6.) ) e.w.s.j.j.6._ _ ",
"S k ~ L y > / L l f g G >.! z 8 ; G pXw.j.h.B J k < O ; X   . G E e.5.7.t.N.r.2.) Q e.A.t.0.7.2.q.3."
};
