/* XPM */
static char *_646100906915[] = {
/* columns rows colors chars-per-pixel */
"50 50 172 2 ",
"   c #CE001C",
".  c #C80B1B",
"X  c #D00015",
"o  c #DC0016",
"O  c #DB021C",
"+  c #E30015",
"@  c #E4021E",
"#  c #CF0521",
"$  c #CB0C22",
"%  c #DA0621",
"&  c #D30C27",
"*  c #DD0C24",
"=  c #D30F2A",
"-  c #CB1322",
";  c #D41C2C",
":  c #DE1B2F",
">  c #D41426",
",  c #CC1C33",
"<  c #DD1B34",
"1  c #E70521",
"2  c #E90622",
"3  c #E60A25",
"4  c #E50F28",
"5  c #E80F29",
"6  c #E4162E",
"7  c #EA132D",
"8  c #E51630",
"9  c #E91730",
"0  c #E41B33",
"q  c #EA1933",
"w  c #C62731",
"e  c #CA2935",
"r  c #D5243C",
"t  c #DF263C",
"y  c #D22938",
"u  c #DC2739",
"i  c #CE303C",
"p  c #DA303F",
"a  c #E4273C",
"s  c #EA243C",
"d  c #E0283B",
"f  c #E43F3E",
"g  c #D72F45",
"h  c #CC3B45",
"j  c #D63542",
"k  c #DD3646",
"l  c #D83947",
"z  c #D43449",
"x  c #DA3E4C",
"c  c #E42D41",
"v  c #EA2D43",
"b  c #E53246",
"n  c #E93246",
"m  c #EB3449",
"M  c #E5394B",
"N  c #EB394E",
"B  c #EB3D51",
"V  c #BF4B4E",
"C  c #C3474C",
"Z  c #CE454E",
"A  c #DC4553",
"S  c #D84658",
"D  c #D84D5D",
"F  c #D34B54",
"G  c #CF5259",
"H  c #CF5A5F",
"J  c #D0515A",
"K  c #DF515D",
"L  c #E34253",
"P  c #E94758",
"I  c #E24C5D",
"U  c #EA4A5B",
"Y  c #E1525E",
"T  c #D84E61",
"R  c #CC5F64",
"E  c #D75666",
"W  c #D95660",
"Q  c #D25E64",
"!  c #DC5D66",
"~  c #E55664",
"^  c #EA5262",
"/  c #E65A67",
"(  c #E05F6A",
")  c #EA5A6A",
"_  c #CC6368",
"`  c #D66469",
"'  c #DC676F",
"]  c #D46D72",
"[  c #D96A77",
"{  c #D37577",
"}  c #DD7075",
"|  c #DB707C",
" . c #E3626E",
".. c #ED6271",
"X. c #E06D76",
"o. c #E86F7D",
"O. c #E6737C",
"+. c #EE717D",
"@. c #F0707D",
"#. c #E28265",
"$. c #DB7C85",
"%. c #EC7480",
"&. c #E47B83",
"*. c #EC7B85",
"=. c #E97F88",
"-. c #F07480",
";. c #F07986",
":. c #F07E89",
">. c #D88586",
",. c #DF868A",
"<. c #DD9294",
"1. c #E08487",
"2. c #E4858C",
"3. c #EC838C",
"4. c #EF8590",
"5. c #E78A90",
"6. c #F38B95",
"7. c #E19295",
"8. c #E4979D",
"9. c #EA9399",
"0. c #E49D9E",
"q. c #F0979E",
"w. c #E29DA0",
"e. c #EC9DA2",
"r. c #F19DA3",
"t. c #DCACAB",
"y. c #DAB2AE",
"u. c #EFA2A6",
"i. c #ECA5A8",
"p. c #E3AAAB",
"a. c #ECABAD",
"s. c #E3A4A4",
"d. c #F3A0A8",
"f. c #F0ACAE",
"g. c #E1B1AF",
"h. c #E4AFB2",
"j. c #F2AFB2",
"k. c #E4B4B4",
"l. c #EBB3B4",
"z. c #EBB5B8",
"x. c #E3BBBA",
"c. c #EBBCBB",
"v. c #F3B6B9",
"b. c #F4BCBE",
"n. c #F3B3B6",
"m. c #F2CD96",
"M. c #F1CD98",
"N. c #DFCBC6",
"B. c #EBC4C3",
"V. c #EFC8C7",
"C. c #E6CCC9",
"Z. c #EFC9C8",
"A. c #F4C2C4",
"S. c #F1C8C7",
"D. c #F5CBCB",
"F. c #E3D3CE",
"G. c #E8D3D1",
"H. c #EDDCD9",
"J. c #F2D5D2",
"K. c #F8D4D4",
"L. c #F6DEDC",
"P. c #F4E1DE",
"I. c #EFE9E3",
"U. c #F7E6E4",
"Y. c #F4E9E5",
"T. c #F9EBE7",
"R. c #F1EDE9",
"E. c #FAEEEB",
"W. c #F4F2EE",
"Q. c #F9F2ED",
"!. c #FBF4F0",
"~. c None",
/* pixels */
"~.~.~.~.~.~.~.~.~.~.~.~.~.~.~.~.~.~.~.~.~.~.~.~.~.~.~.~.~.~.~.~.~.~.~.~.~.~.~.~.~.~.~.~.~.~.~.~.~.~.",
"~.~.~.~.~.~.~.~.~.~.~.~.~.~.~.~.~.~.~.~.~.~.~.~.~.~.~.~.~.~.~.~.~.~.~.~.~.~.~.~.~.~.~.~.~.~.~.~.~.~.",
"~.~.~.~.~.~.~.~.~.~.~.~.~.~.~.~.~.~.~.~.~.~.~.~.~.~.~.~.~.~.~.~.~.~.~.~.~.~.~.~.~.~.~.~.~.~.~.~.~.~.",
"~.~.~.~.~.~.~.~.~.~.~.~.~.~.~.~.~.~.~.~.~.~.~.~.~.~.~.~.~.~.~.~.~.~.~.~.~.~.~.~.~.~.~.~.~.~.~.~.~.~.",
"~.~.~.~.~.~.~.~.~.~.~.~.~.~.~.~.~.~.~.~.~.~.` G.Q.~.~.~.~.~.~.~.~.~.~.~.~.~.~.~.~.~.~.~.~.~.~.~.~.~.",
"~.~.~.~.~.~.~.~.~.~.~.~.~.~.~.~.~.~.~.s ^ f.S.d.6.6.;.~ l ~.~.~.~.~.~.~.~.~.~.~.~.~.~.~.~.~.~.~.~.~.",
"~.~.~.~.~.~.~.~.~.~.~.~.~.~.~.~.~.v q N v.a.k / e.f.r.6.=.5.~.~.~.~.~.~.~.~.~.~.~.~.~.~.~.~.~.~.~.~.",
"~.~.~.~.~.~.~.~.~.~.~.~.~.~.~.~.3.7 3 O.k.G ,.B.2.p 3 @ @ 7 n ~.~.~.~.~.~.~.~.~.~.~.~.~.~.~.~.~.~.~.",
"~.~.~.~.~.~.~.~.~.~.~.~.~.~.~.P.A + 4 &.p.k.5.......M 3 6 a 9 4 ~.~.~.~.~.~.~.~.~.~.~.~.~.~.~.~.~.~.",
"~.~.~.~.~.~.~.~.~.~.~.~.~.~.~.D.; o & <.t.y a 4.b.D.A.u.>.c.D.3.l ~.~.~.~.~.~.~.~.~.~.~.~.~.~.~.~.~.",
"~.~.~.~.~.~.~.~.~.~.~.~.~.~.k.V.- X D F.C i B.R.Y.a./ P +.A.B.J.A.Q ~.~.~.~.~.~.~.~.~.~.~.~.~.~.~.~.",
"~.~.~.~.~.~.~.~.~.~.~.~.~.~.7.J.e $ $.N.V x.R.L.U.Q.D.U 7 m O.L 6.B.~.~.~.~.~.~.~.~.~.~.~.~.~.~.~.~.",
"~.~.~.~.~.~.~.~.~.~.~.~.~.~.X.U.R , | F.y.H.=.) o.e.E.D.3.s n a s 4.H.~.~.~.~.~.~.~.~.~.~.~.~.~.~.~.",
"~.~.~.~.~.~.~.~.~.~.~.~.~.~.A b.p.z z G.I.j.3 7 a j 0.Q.Q.A.^ a v L w.~.~.~.~.~.~.~.~.~.~.~.~.~.~.~.",
"~.~.~.~.~.~.~.~.~.~.~.~.~._ L U z.T & 2.H.n.5 @ % # E Y.P.Q.b.L ) b J ~.~.~.~.~.~.~.~.~.~.~.~.~.~.~.",
"~.~.~.~.~.~.~.~.~.~.~.~.~.~. .3 N S = < I =.P 6 %   [ P.<.D.L.` b.^ h ~.~.~.~.~.~.~.~.~.~.~.~.~.~.~.",
"~.~.~.~.~.~.~.~.~.~.~.~.~.~.i.s + ; r % @ @ @ @ O y x.G.Z >.P.A S.9.e ~.~.~.~.~.~.~.~.~.~.~.~.~.~.~.",
"~.~.~.~.~.~.~.~.~.~.~.~.~.~.g.r.B > h A 0 @ 3 9 I h.C.! . { P.x <.e.- ~.~.~.~.~.~.~.~.~.~.~.~.~.~.~.",
"~.~.~.~.~.~.~.~.~.~.~.~.~.~.~.X.f.f.w.h.3. .&.z.H.c.^ 6 - s.U.' H 9.~.~.~.~.~.~.~.~.~.~.~.~.~.~.~.~.",
"~.~.~.~.~.~.~.~.~.~.~.~.~.~.~.~.6 m N s 6 Y c.L.9.B q @ j ] p.' ` i.~.~.~.~.~.~.~.~.~.~.~.~.~.~.~.~.",
"~.~.~.~.~.~.~.~.~.~.~.~.~.~.~.~.~.~...3.i.b.v.2.=.%.U 0 < F S.Y 2.~.~.~.~.~.~.~.~.~.~.~.~.~.~.~.~.~.",
"~.~.~.~.~.~.~.~.~.~.~.~.~.~.~.~.~.~.~.~.W +.D.T.K.+.s q p 0.6.M ~.~.~.~.~.~.~.~.~.~.~.~.~.~.~.~.~.~.",
"~.~.~.~.~.~.~.~.~.~.~.~.~.~.~.~.~.~.~.~.~.z.Y.e.a @ q ~ 9.+.~.~.~.~.~.~.~.~.~.~.~.~.~.~.~.~.~.~.~.~.",
"~.~.~.~.~.~.~.~.~.~.~.~.~.~.~.~.~.~.~.~.~.~.] ; f ~.~.~.~.~.~.~.~.~.~.~.~.~.~.~.~.~.~.~.~.~.~.~.~.~.",
"~.~.~.~.~.~.~.~.~.~.~.~.~.~.~.~.~.~.~.~.~.~.~.#.m.~.~.~.~.~.~.~.~.~.~.~.~.~.~.~.~.~.~.~.~.~.~.~.~.~.",
"~.~.~.~.~.~.~.~.~.~.~.~.~.~.~.~.~.~.~.~.~.~.~.~.m.~.~.~.~.~.~.~.~.~.~.~.~.~.~.~.~.~.~.~.~.~.~.~.~.~.",
"~.~.~.~.~.~.~.~.~.~.~.~.~.~.~.~.~.~.~.~.~.~.~.~.m.~.~.~.~.~.~.~.~.~.~.~.~.~.~.~.~.~.~.~.~.~.~.~.~.~.",
"~.~.~.~.~.~.~.~.~.~.~.~.~.~.~.~.~.~.~.~.~.~.~.~.m.~.~.~.~.~.~.~.~.~.~.~.~.~.~.~.~.~.~.~.~.~.~.~.~.~.",
"~.~.~.~.~.~.~.~.~.~.~.~.~.~.~.~.~.~.~.~.~.~.~.~.m.~.~.~.~.~.~.~.~.~.~.~.~.~.~.~.~.~.~.~.~.~.~.~.~.~.",
"~.~.~.~.~.~.~.~.~.~.~.~.~.~.~.~.~.~.~.~.~.~.~.~.m.~.~.~.~.~.~.~.~.~.~.~.~.~.~.~.~.~.~.~.~.~.~.~.~.~.",
"~.~.~.~.~.~.~.~.~.~.~.~.~.~.~.~.~.~.~.~.~.~.~.~.m.~.~.~.~.~.~.~.~.~.~.~.~.~.~.~.~.~.~.~.~.~.~.~.~.~.",
"~.~.~.~.~.~.~.~.~.~.~.~.~.~.~.~.~.~.~.~.~.~.~.~.m.~.~.~.~.~.~.~.~.~.~.~.~.~.~.~.~.~.~.~.~.~.~.~.~.~.",
"~.~.~.~.~.~.~.~.~.~.~.~.~.~.~.~.~.~.~.~.~.~.~.~.m.~.~.~.~.~.~.~.~.~.~.~.~.~.~.~.~.~.~.~.~.~.~.~.~.~.",
"~.~.~.~.~.~.~.~.~.~.~.~.~.~.~.~.~.~.~.~.~.~.~.~.m.~.~.~.~.~.~.~.~.~.~.~.~.~.~.~.~.~.~.~.~.~.~.~.~.~.",
"~.~.~.~.~.~.~.~.~.~.~.~.~.~.~.~.~.~.~.~.~.~.~.~.m.~.~.~.~.~.~.~.~.~.~.~.~.~.~.~.~.~.~.~.~.~.~.~.~.~.",
"~.~.~.~.~.~.~.~.~.~.~.~.~.~.~.~.~.~.~.~.~.~.~.~.M.~.~.~.~.~.~.~.~.~.~.~.~.~.~.~.~.~.~.~.~.~.~.~.~.~.",
"~.~.~.~.~.~.~.~.~.~.~.~.~.~.~.~.~.~.~.~.~.~.~.~.m.~.~.~.~.~.~.~.~.~.~.~.~.~.~.~.~.~.~.~.~.~.~.~.~.~.",
"~.~.~.~.~.~.~.~.~.~.~.~.~.~.~.~.~.~.~.~.~.~.~.~.m.~.~.~.~.~.~.~.~.~.~.~.~.~.~.~.~.~.~.~.~.~.~.~.~.~.",
"~.~.~.~.~.~.~.~.~.~.~.~.~.~.~.~.~.~.~.~.~.~.~.~.m.~.~.~.~.~.~.~.~.~.~.~.~.~.~.~.~.~.~.~.~.~.~.~.~.~.",
"~.~.~.~.~.~.~.~.~.~.~.~.~.~.~.~.~.~.~.~.~.~.~.~.M.~.~.~.~.~.~.~.~.~.~.~.~.~.~.~.~.~.~.~.~.~.~.~.~.~.",
"~.~.~.~.~.~.~.~.~.~.~.~.~.~.~.~.~.~.~.~.~.~.~.~.m.~.~.~.~.~.~.~.~.~.~.~.~.~.~.~.~.~.~.~.~.~.~.~.~.~.",
"~.~.~.~.~.~.~.~.~.~.~.~.~.~.~.~.~.~.~.~.~.~.~.~.M.~.~.~.~.~.~.~.~.~.~.~.~.~.~.~.~.~.~.~.~.~.~.~.~.~.",
"~.~.~.~.~.~.~.~.~.~.~.~.~.~.~.~.~.~.~.~.~.~.~.~.M.~.~.~.~.~.~.~.~.~.~.~.~.~.~.~.~.~.~.~.~.~.~.~.~.~.",
"~.~.~.~.~.~.~.~.~.~.~.~.~.~.~.~.~.~.~.~.~.~.~.~.~.~.~.~.~.~.~.~.~.~.~.~.~.~.~.~.~.~.~.~.~.~.~.~.~.~.",
"~.~.~.~.~.~.~.~.~.~.~.~.~.~.~.~.~.~.~.~.~.~.~.~.~.~.~.~.~.~.~.~.~.~.~.~.~.~.~.~.~.~.~.~.~.~.~.~.~.~.",
"~.~.~.~.~.~.~.~.~.~.~.~.~.~.~.~.~.~.~.~.~.~.~.~.~.~.~.~.~.~.~.~.~.~.~.~.~.~.~.~.~.~.~.~.~.~.~.~.~.~.",
"~.~.~.~.~.~.~.~.~.~.~.~.~.~.~.~.~.~.~.~.~.~.~.~.~.~.~.~.~.~.~.~.~.~.~.~.~.~.~.~.~.~.~.~.~.~.~.~.~.~.",
"~.~.~.~.~.~.~.~.~.~.~.~.~.~.~.~.~.~.~.~.~.~.~.~.~.~.~.~.~.~.~.~.~.~.~.~.~.~.~.~.~.~.~.~.~.~.~.~.~.~.",
"~.~.~.~.~.~.~.~.~.~.~.~.~.~.~.~.~.~.~.~.~.~.~.~.~.~.~.~.~.~.~.~.~.~.~.~.~.~.~.~.~.~.~.~.~.~.~.~.~.~.",
"~.~.~.~.~.~.~.~.~.~.~.~.~.~.~.~.~.~.~.~.~.~.~.~.~.~.~.~.~.~.~.~.~.~.~.~.~.~.~.~.~.~.~.~.~.~.~.~.~.~."
};
