/* XPM */
static char *_7ec736cf5014e27c61734c43c111b44sN9CA4n3x6pFoPu0[] = {
/* columns rows colors chars-per-pixel */
"50 50 239 2 ",
"   c None",
".  c #251E1A",
"X  c #321D15",
"o  c #392219",
"O  c #2B241F",
"+  c #1E2824",
"@  c #2B2925",
"#  c #292725",
"$  c #3A3734",
"%  c #302F2A",
"&  c #482A1D",
"*  c #532B1F",
"=  c #5E371C",
"-  c #6A3A1B",
";  c #7B351A",
":  c #5D1D39",
">  c #551C35",
",  c #4D1E2D",
"<  c #631E3D",
"1  c #691E3A",
"2  c #552A28",
"3  c #593526",
"4  c #5B2639",
"5  c #4C3C39",
"6  c #4C322E",
"7  c #692C28",
"8  c #643B29",
"9  c #663727",
"0  c #77372A",
"q  c #63223F",
"w  c #6D243D",
"e  c #682936",
"r  c #74293D",
"t  c #693636",
"y  c #793B37",
"u  c #762E26",
"i  c #384138",
"p  c #5B4235",
"a  c #42433E",
"s  c #78482C",
"d  c #67473B",
"f  c #774637",
"g  c #6B1F41",
"h  c #671F40",
"j  c #5D2A41",
"k  c #652341",
"l  c #6D2342",
"z  c #672C43",
"x  c #732245",
"c  c #7B2A43",
"v  c #7B244A",
"b  c #762946",
"n  c #6A3649",
"m  c #7B3C43",
"M  c #773647",
"N  c #6A3951",
"B  c #773652",
"V  c #494A45",
"C  c #4A4743",
"Z  c #574B45",
"A  c #54564E",
"S  c #5B5C56",
"D  c #4F514B",
"F  c #7C4646",
"G  c #795848",
"H  c #6D4455",
"J  c #77485A",
"K  c #625C57",
"L  c #785656",
"P  c #604E42",
"I  c #6B655A",
"U  c #755864",
"Y  c #735162",
"T  c #77656B",
"R  c #6D716D",
"E  c #7C7A79",
"W  c #726B6D",
"Q  c #8E321B",
"!  c #A8371C",
"~  c #89323D",
"^  c #973C3F",
"/  c #8D3422",
"(  c #A8372B",
")  c #864A2C",
"_  c #84463B",
"`  c #974734",
"'  c #8C5938",
"]  c #985738",
"[  c #935429",
"{  c #A35438",
"}  c #97653C",
"|  c #9F733F",
" . c #AE6438",
".. c #B66A37",
"X. c #B46C35",
"o. c #A47315",
"O. c #C66B1B",
"+. c #CE761E",
"@. c #CF7C2E",
"#. c #85254E",
"$. c #85294C",
"%. c #8C2A4C",
"&. c #892747",
"*. c #942B4B",
"=. c #893749",
"-. c #9A3749",
";. c #862651",
":. c #8C2753",
">. c #8D2954",
",. c #862C50",
"<. c #922755",
"1. c #932956",
"2. c #9A2B52",
"3. c #952A59",
"4. c #953256",
"5. c #803351",
"6. c #A32B53",
"7. c #B62E57",
"8. c #AA3256",
"9. c #B73952",
"0. c #C6335C",
"q. c #C53A63",
"w. c #D33B65",
"e. c #834344",
"r. c #884947",
"t. c #924948",
"y. c #8B5448",
"u. c #985747",
"i. c #884757",
"p. c #964759",
"a. c #895855",
"s. c #975B58",
"d. c #B74346",
"f. c #A65946",
"g. c #BD4951",
"h. c #9D634D",
"j. c #9B6543",
"k. c #9A6456",
"l. c #896656",
"z. c #AD614C",
"x. c #A46848",
"c. c #A9734D",
"v. c #A87842",
"b. c #B87746",
"n. c #A46B53",
"m. c #AA6D55",
"M. c #A46854",
"N. c #B56A52",
"B. c #AA7255",
"V. c #AA725A",
"C. c #AC795C",
"Z. c #A77357",
"A. c #B27D5B",
"S. c #B77859",
"D. c #BD6B47",
"F. c #915962",
"G. c #895B67",
"H. c #A85C64",
"J. c #886566",
"K. c #957367",
"L. c #8A6B78",
"P. c #857878",
"I. c #987875",
"U. c #926D71",
"Y. c #AB6B67",
"T. c #A97D6A",
"R. c #BA7B6D",
"E. c #B57E66",
"W. c #AD7E76",
"Q. c #C37C45",
"!. c #C87858",
"~. c #C66850",
"^. c #DA446A",
"/. c #D34070",
"(. c #E34778",
"). c #E55070",
"_. c #D0796E",
"`. c #EE6C7C",
"'. c #7E817A",
"]. c #DAA325",
"[. c #E4AC3B",
"{. c #D58C3E",
"}. c #B88259",
"|. c #90847A",
" X c #838074",
".X c #B38263",
"XX c #B6856C",
"oX c #BB8868",
"OX c #BB8C75",
"+X c #AB8C77",
"@X c #C88146",
"#X c #C68555",
"$X c #D69C5D",
"%X c #D59855",
"&X c #D38F57",
"*X c #E2BE48",
"=X c #E3AA5D",
"-X c #C28466",
";X c #C28D6E",
":X c #C88865",
">X c #D68867",
",X c #C9926A",
"<X c #D69469",
"1X c #C18F71",
"2X c #C59474",
"3X c #C8997B",
"4X c #DB9D76",
"5X c #DFA473",
"6X c #DBA665",
"7X c #E4B56A",
"8X c #E4B879",
"9X c #ED8C78",
"0X c #877A82",
"qX c #E84F82",
"wX c #E95186",
"eX c #888A86",
"rX c #938686",
"tX c #8E928B",
"yX c #99948A",
"uX c #9A9B96",
"iX c #A99485",
"pX c #B99B8B",
"aX c #AA9B91",
"sX c #9FA098",
"dX c #A8A498",
"fX c #B1A499",
"gX c #BCB4A6",
"hX c #C19480",
"jX c #CFA78F",
"kX c #E7BF98",
"lX c #C4B7A7",
"zX c #E8CD96",
"xX c #DED3BA",
"cX c #CEC0AD",
"vX c #E7D3B7",
"bX c #EBD1A8",
"nX c #E9DEC7",
"mX c #EBE4CB",
"MX c #EAE7D7",
/* pixels */
"                                                                                                    ",
"                                                                                                    ",
"                                                                                                    ",
"                                          8.*.~ v %.2.                                              ",
"                            (.qXwXwX(./.2.e , , 2 4 w c %.8.q.                                      ",
"                      ).(.(.(.(./.q.8.r & X X o & * 3 8 0 y ~ 8.q.                                  ",
"                  ^.^.^.w.w.0.7.6.1.r 2 o o & & 3 0 ) ) ) ` ] ` ` 9.                                ",
"              ^.w.0.0.7.7.8.2.%.,.c 3 * & * 2 8 s ) {  . ...b.@.Q.~.g.g.                            ",
"            0.0.7.6.2.2.2.3.1.1.=.y 8 8 8 8 p f ) ]  .b.@X@X@X&X%X%X$X~.9.                          ",
"          6.6.2.;.:.<.*.>.>.>.=.' ) s s s s s ' ] v.b.@X%X%X%X%X$X=X7X7X!.d.                        ",
"        &.;.#.#.;.;.:.>.1.>.=.] ' ' ' ' ' ' ' j.x.c.#X@X&X$X%X%X$X$X6X8X<X-.                        ",
"      c #.#.;.;.>.>.3.3.3.3.t.} } } } v.x.c.x.v.b.}.}.}.}.,X:X}.S.B.B.oXR.c 5.                      ",
"      $.#.;.>.>.3.3.3.3.3.p.j.j.v.c.c.}.}.}.}..XA.A.C.Z.c.k.n.Z $ $ I XXE.e.b                       ",
"      $.#.>.1.3.3.<.<.<.1.Y.A.}.}.oX}..X.X}.Z.Z.C.C.C.n.h.h.|.I $ $ S +X:XR.c $.                    ",
"      $.;.>.3.3.3.<.<.<.4.R.;X;XOXoXXXT.Z 6 5 G Z.}..XC.h.h.+XfXaXyXiX3X,XjXY.b                     ",
"      %.;.>.1.3.3.<.<.<.4.E.2X2XoXXXpXaXD + + i K.E..X.XB.u.B.XXXX:X!._.4XkXjXc =.                  ",
"      $.;.>.1.3.3.3.3.<.3.Y.3X3X2X3XlXgXfXyXP.|.+Xn.E.A.m.u.u.h.N.S.:X>X>X<X-Xc =.                  ",
"      *.;.:.>.1.<.3.3.<.<.p.3XhX3X3XjXjXhXOXW.Y.M.x.n.B.V.V.Z.h.m.m.N.z.f.f.t.~                     ",
"        %.;.,.3.<.<.3.3.3.3.R.2X2X2XOXoXS.N.z.f.f.u.h.x.Z.V.h.h.n.V.m.m.M.s.r                       ",
"        d.*.>.>.<.<.<.<.3.3.H.2X1X1X-XoX!.N.N.z.f.z.n.n.Z.V.z.u.u.n.n.k.y.M                         ",
"            -.1.:.,.>.:.;.:.4.Y.OXOXOXoXoXE.S.E.V.V.Z.Z.M.f.` ^ u.M.u.F                             ",
"                -.%.%.;.;.,.;.,.i.Y.XXXXXXoX.XT.E.C.V.Z.V.B.m.M.k.a.                                ",
"                      -.%.,.v v x x c =.i.s.s.k.s.k.s.k.s.y.e.B M                                   ",
"                            z x 1 x w < : > 4 J H z 4 : h 1 q q k k k b                             ",
"                              l g g J L.T n > j > > > > H U T T J 4 : v <.2.                        ",
"                                w B rXuXuXL.k : > j N J.tXtXeXeXE j n i.%.%.+X                      ",
"                                  K.uXuXtXE J v v B L.0XeX0X0XW U j J uXU.p.lXbX                    ",
"                                    sXuXtXE R B v v v v x b l h q : J uXdXcXnXmXmX                  ",
"                                    dXuXtX'.R W B v v x g x g h < 1 t.|.yXgXxXmXMXMX                ",
"                                      dXsXtX'.R T v x x g x h h : < 1 &.J.tXdXgXvXnXvX              ",
"                                      pXsXeXW K U N v x g h h h < 1 1 &.&.=.L.P.2XbXvXvXbXzX        ",
"                                      Y.0XP.L f d d t l g h h < 1 1 r &.=.i.s.T._.>X<X4X5X5X=X      ",
"                                        B i.s.u.u.y.' y n N H H J 5.c F.U.F.s.s.!.!.!.!.!.!.        ",
"                                        l x =.=.t.u.y.m 4 4 q z B U.J.J.F y e.t.~.&X                ",
"                                        x x x x x x l < : : < q w J.rXJ.F m r.u.@.#X                ",
"                                      r l x x g l h < < k l z m f y.P.P.J v { ].[.>X                ",
"                                      &.1 l h < h k l M M e.m y y 0 f f n J s.@.[._._.              ",
"                                      b l l M m m m e.r.r.f ) u / u u 7 w N i.9.^.`.`.9X7X          ",
"                                    r.=.e.r.t.t.r.r._ _ ^ ( Q Q u 7 3 t t y ]  .{.[.[.*X*X7X        ",
"                          @ . O o. .] e._ e.a.L L L ` / ! ! ! Q 2 t D $ d G l.y.f.~.,X,X,X,X        ",
"                          C $ . = {         l.E W I X.+.O.O.].[ 5 F W D $ 6 p 6 0 [ { { x.          ",
"                          C V # .           a.B e.' / [ O.O.O.s 5 7 Z A C @ @                       ",
"                            Z # O         z B n [ o.s q 7 ; ; p C 7 p S V i #                       ",
"                                        t 1 N J t 0 2 > , & - = K 5 5 S V a @                       ",
"                                        e 1 r r e t 9 9 3 9 - = P A C S S V %                       ",
"                                          ' v.| | v.| } } y.s 3 8 P A K I C #                       ",
"                                            +X+XJ.L F t t 6 & 2 8 8 8 Z D $ #                       ",
"                                                                                                    ",
"                                                                                                    ",
"                                                                                                    "
};
