/* XPM */
static char *_646099174133[] = {
/* columns rows colors chars-per-pixel */
"50 50 228 2 ",
"   c #6A9D16",
".  c #69971D",
"X  c #6C9C1C",
"o  c #67981A",
"O  c #719D1D",
"+  c #6EA11C",
"@  c #6CA215",
"#  c #73A31D",
"$  c #79A51E",
"%  c #76A81C",
"&  c #7BA91E",
"*  c #70A317",
"=  c #699623",
"-  c #6C9B23",
";  c #6D9B2C",
":  c #669726",
">  c #729E23",
",  c #7A9F24",
"<  c #729E2B",
"1  c #6D9C33",
"2  c #6E9F39",
"3  c #719D33",
"4  c #719E3A",
"5  c #6EA121",
"6  c #6EA32A",
"7  c #74A323",
"8  c #7AA423",
"9  c #76A824",
"0  c #7CA923",
"q  c #74A22B",
"w  c #7BA42A",
"e  c #7BAA2B",
"r  c #74A82A",
"t  c #6DA038",
"y  c #74A334",
"u  c #7BA433",
"i  c #76A933",
"p  c #7BAA34",
"a  c #74A43C",
"s  c #7BA53C",
"d  c #7BAA3C",
"f  c #77AA3D",
"g  c #739F41",
"h  c #75A344",
"j  c #7AA644",
"k  c #7DAB45",
"l  c #75A44C",
"z  c #7AA64C",
"x  c #7DAA4A",
"c  c #75A84A",
"v  c #7DAB54",
"b  c #7AA95C",
"n  c #78A659",
"m  c #7DAA66",
"M  c #82A626",
"N  c #83AB25",
"B  c #82A62A",
"V  c #84AB2B",
"C  c #8BAD2C",
"Z  c #8AAE27",
"A  c #92AE2E",
"S  c #8CB12C",
"D  c #8AB127",
"F  c #92B22E",
"G  c #83A634",
"H  c #83AB33",
"J  c #8BAC32",
"K  c #83AB3B",
"L  c #8AAD3B",
"P  c #81A738",
"I  c #91AE33",
"U  c #90AE39",
"Y  c #8CB133",
"T  c #8BB13B",
"R  c #87B138",
"E  c #95B332",
"W  c #9CB635",
"Q  c #9EB836",
"!  c #94B23A",
"~  c #9DB63B",
"^  c #9BB93E",
"/  c #A0B636",
"(  c #A0B836",
")  c #A1B73B",
"_  c #A1B93C",
"`  c #EDE139",
"'  c #83AC43",
"]  c #89AD44",
"[  c #82A74C",
"{  c #82AD4C",
"}  c #8AAF4D",
"|  c #8DB243",
" . c #8DB24B",
".. c #83B14C",
"X. c #96B544",
"o. c #9BB644",
"O. c #9DB944",
"+. c #94B44C",
"@. c #9DB94B",
"#. c #97B949",
"$. c #81AD53",
"%. c #83AE5B",
"&. c #87AC58",
"*. c #83B152",
"=. c #8DB253",
"-. c #85B25D",
";. c #8AB35C",
":. c #94B554",
">. c #9EBB53",
",. c #94B55C",
"<. c #9AB95B",
"1. c #99B658",
"2. c #A3BA44",
"3. c #A3BB4B",
"4. c #A9BE4D",
"5. c #A0B743",
"6. c #A3BA54",
"7. c #AABE53",
"8. c #A2BB5B",
"9. c #ACBE5C",
"0. c #81AB63",
"q. c #8AAE67",
"w. c #8AB465",
"e. c #8CB46B",
"r. c #88B66C",
"t. c #9DBA64",
"y. c #9CBC6B",
"u. c #94B768",
"i. c #89B376",
"p. c #98B978",
"a. c #A3BD63",
"s. c #A3BD6C",
"d. c #A4BD75",
"f. c #A4BC7B",
"g. c #ABC14F",
"h. c #A4C15E",
"j. c #ACC25B",
"k. c #A7C154",
"l. c #B3C65D",
"z. c #ACC262",
"x. c #A7C36B",
"c. c #B3C563",
"v. c #B6C865",
"b. c #B7C96B",
"n. c #ACC673",
"m. c #ACC67C",
"M. c #A9C576",
"N. c #BCCC74",
"B. c #B3CA7B",
"V. c #BACD7D",
"C. c #B4CA74",
"Z. c #BDD17B",
"A. c #E9DF4B",
"S. c #ECE04A",
"D. c #F1E14B",
"F. c #E6E05C",
"G. c #F3E456",
"H. c #C3CD67",
"J. c #D4D767",
"K. c #C1CF79",
"L. c #C7D379",
"P. c #D6DC7E",
"I. c #C7D06A",
"U. c #EADF61",
"Y. c #E5DF77",
"T. c #EAE363",
"R. c #E9E075",
"E. c #E5E277",
"W. c #F3E770",
"Q. c #99BB87",
"!. c #96BA98",
"~. c #88B491",
"^. c #8EB9B7",
"/. c #94BBA8",
"(. c #A7C18A",
"). c #B8CD86",
"_. c #BCD284",
"`. c #A9C294",
"'. c #A6C49E",
"]. c #BED296",
"[. c #A6C3A6",
"{. c #A9C7B8",
"}. c #B1C8BC",
"|. c #C8D484",
" X c #C4D48B",
".X c #CBD589",
"XX c #C6D88C",
"oX c #C8D687",
"OX c #D9DE8D",
"+X c #D5DC86",
"@X c #C4D594",
"#X c #CCDA94",
"$X c #C9D899",
"%X c #D2DB95",
"&X c #D9DF98",
"*X c #DCE08D",
"=X c #DBE19D",
"-X c #DBE299",
";X c #E3E385",
":X c #E4E48C",
">X c #E9E386",
",X c #F4EA86",
"<X c #E5E597",
"1X c #F4EE9C",
"2X c #F4EC95",
"3X c #CCDBA5",
"4X c #D3DFA5",
"5X c #DBE2A3",
"6X c #DBE4AD",
"7X c #D7E2A5",
"8X c #D8E3B3",
"9X c #EDECA2",
"0X c #E4E7A8",
"qX c #F5EEA5",
"wX c #F4F0A9",
"eX c #E6EBB8",
"rX c #F5F2B4",
"tX c #F5F3BC",
"yX c #EFF0A8",
"uX c #B3CCCA",
"iX c #B1CDD1",
"pX c #ADCBC1",
"aX c #E6EEC7",
"sX c #ECF2C6",
"dX c #F6F5C9",
"fX c #F5F8D6",
"gX c #EAF3D5",
"hX c #F8FBE3",
/* pixels */
"6.`.d.2.g.I q p D E O N c.:X&X2.Q 8 s V B w 8 E Q Q W 0 8 , J k w E Q %X;XN.V 8 C A i q C 3.2.a.'.a.",
"8.uX(.K.Y.>.> f   C $ O G N.c.W W 8 y w E ] B J W W I B K ~ 0 y w F W 7.N.U X % V # p y Y *XP.M.iXd.",
" X].8.L.E.:.# *.h x - 7 Z Q 5.^ & # - f <.:X|.7 E o.8 C.;X_.y < # & I 3.) A 8 X x ; w.# P ;XP.6.).@X",
"2X9X9.2.l.w V d 0.u 8 0 W 2.-X5X> > # X 1.:X|.w h.Z.N B.:XB.- # O O  X<X7.W N , P h *.0 7 6.4.3.0X2X",
",X2Xv.1./.:.W M E Q C O J U eXeXJ w 0 r = X.W Q N.#X~ W ! > 3 & B , 5XdX3.C # 8 Q W N E o.!.p.4.9XW.",
"_.m.^ ,.!.} +.w X S I 8 8 | 7. XoXJ # &.o.A Z E _ 2.W Z C ~ w.# N Z.#X9.#.< 8 C F + 7  .L !.u.~ s. X",
"8 $.K E B >  .K   + M $ V.Y.0XtX2X<.X # W 8 # A ( / E $ O Q 8 X G tXqX0XY. X9 N X X w  .> , ~ H 0., ",
"B < 9 N V 7 8 8 o q ; > $XA.<X6X7XH X # N w $ , Z S 8 $ 8 S * X w @X8X0XA.4Xw - y   # w w 8 S # < B ",
"9   X r 7 7 - 7 X l - V 7.|.b.J X # X @ O $.b # * * $ g m 8   * * + C 9.oX9.I X h 6 5 5 5 7 w . o # ",
". 1.V.0.g u u.{ r b l 1.d.o.) I P !.w.# = ; u Z 7 > N J : 1 + { !.[ J / ~ d.t.h n ' s u.' < 0.M.x.> ",
"p 5XqX$Xb.5.V # * - f Q.iX%.Y S @.}.p.Z [ x 8 W V 8 ~ & q e.0 ,.}.y.F C { }.'.p 1 + # 8 ~ 9.).rXyX+.",
"V m.aX0XU.|.7 6 p + X ] } - O 0 Y P I D V a *.Z B M A k x V S J K V Z # - [  .X + r y > N.Y.<XaX@XK ",
"# 8 o.OXU.|.T a a # . 7 7 M.m.7 0 # $ 9 -.t y 8 % % 0 < t -.9 9 # O # t.).9 # . + 6 j p C.R.;Xc.9 # ",
"w C ~ 7.s.P w.l a x ; @ ' yXtX| O # V - z [ c X > > X a %.x ; V $ O e sXqX<.X : v 6 b *.P t.a.) F M ",
") 8.>.) B . # y 5 R r e E 6X8Xr   Z ) ~ & & $ 0 E W V # % $ W ) F * - ].eXO.N 7 K 7 y 9   , Q 3.8.o.",
"5.{.'.I / E & ;.o k - - H E t X 0 I @XsXM.j u.H.H.l.I.t.$.=.eX8XX.N + 1 Y H 5 - k 5 %.9 A Q F Q.uX8.",
"o.!.i.V / / E T G w - 4 r H Q.: r. .gX,XaX: =.S.F.J.` z.: 3X2XdXx.m 1 i.] 7 j = > J L E ( ( D %.!.<.",
"9 D 8 w A ) +XW.+XQ E ' 1 c - B 4 q @XaXV.w e j.h.@.c.H 7 h.aX8XK ; H X x ; $.N / b.W.;X2.E 8 8 C N ",
"O e n + b.XX*XT..XW E d l *.0 W A 8 I ] 8 X X - k f y +   8 d ! 8 Z W V v h v S W b.T.:X XZ.7 j p # ",
"- = u 8.fXwX$X+.e A ^ y = 0 A A A ~ ) C , # o s p p p -   8 V W Q A A F 0 X r X.W 7 +.V.tXrX).P : = ",
"s p.> 3.hXfXB.0 + 0 o.G , # 9 O x.sX%XQ F 0 r pX{.!.iXj 9 A W K.sX$XO O 9 , B o.C X # k.fXhXN.8 w.v ",
"C q { e +.=.0 X # N W O X k # V sXD.<Xp r a 3 /.Q.u.[.l < a 9 =XG.dXX.O d X > I Z # X +  .:.V k 3 C ",
"p y v q V 5 . X   8 Z 8 0 V % C %X9X#X7 f k r u.V $ u.r i z X ).9X0X! $ 8 Z $ M 0   X o X e 7 z 4 i ",
"h z v = j > e.i O < ;.7 7 E F ( ) 7.=.V h h Z E w 7 E S i m 0  .8._ ( F E w 7 -.i . w w.; k . z j z ",
"C J # 7 C N e 7 # w z # H |.N.) Q Q ! N -.- E Q W E ( W > -.e E W Q Q c.|.! * j p 7 % w V S O 9 C C ",
"J E 0 0 F C w # 8 B 3 # ! *XoX_ Q W D 0 v = E Q ~ W ( W > $.0 S E Q / N.*X>.& ; G 0 + # N W M 9 S I ",
"3 s x = i q ;.r X < e.> 7 ^ W ( Q 2.:.V h a F W B w E E y b 0 :.3.Q Q W ^ 9 - e.y . 9 -., s . j ' 4 ",
"' j v - H 7 ; + X 7 C $ N V # S V.0X).7 t d 9 ;.B 9 :.r e c - x.6X%XI 8 N D $ N 8 . + ; 5 K > h a [ ",
"N w %.w H y > o # 0 E O + u O V sXG.<Xe p h y !.u.,.!.h y z # =XG.dX#.O i + O C Z # o @ u u N { y M ",
"s e.X X.fXhXz.0 + 8 ~ J > e 9 , @XtX6X^ N 8 q {.[.Q.uXj 9 N F #XtXeXq # e , V ) Z X 7 #.gXhXj.# %.$.",
"> 4 w z.fX1X@XH # A X.s . 0 F M C g._ E M $ - %.-.x ;.; X B C _ 4.E B C N - < :.W # H n.rXrX XB 3 ; ",
"> r b r XX8X-XE.K.W E i l f V W F Z E w 7 X @ 7 ..d y X   8 8 E Z A / S f 4 z Z W j.E.*X4X7Xp l s O ",
"7 C w 7 C 2.OXG.OXQ E K 2 %.+ C 7 7 n.8Xh.7 9 +.:.| ,.9 X X.4X@Xp - Y + v t k C Q K.G.;X3.~ O 9 C 8 ",
"! u.x V / / 2.z.o.V 8 z y p r.: ~.+.gX2XaX> +.S.F.J.` z.- 3XyXdXx.i.1 0.K 7 -.- B ^ a.4./ ( Z k q.@.",
"o.}.[.Y / W & { = k = = e J z = 0 T 3XdX].h i.J.J.I.J.y.n t.sXaX+.0 7 4 R H - = j - x 9 W / E p.iX8.",
"5.f.y.^ C O 9 k - V 8 0 F  X).> X F O.4.0 & N J ! W Y V & & 2.2.E # = s.@XW N 7 B 9 j 0 X B ~ a.Q.3.",
"V E Q 2. .q x l a *.; X | rXrX .O $ C w 3 K s - 7 7 - y ' y 7 J 0 # i eXqX8.+ = -.6 b j w ] @.~ W C ",
"O 8 O.%XR._. .s t # = # 9 _.].6 7 # 8 # r.t 2 # % % $ ; a r.6 0 # O 7 m.$Xe + . # 6 h ' x.>XOX9.& X ",
"w t.7X<XA..X8 y k +   H d - X & S w C N 0 f -.Z N 0 C ' v 0 Z Z B N N * - e R . + i j > K.U.>X6Xm.G ",
"H 5XqX8X.X4.O O @ - w Q.pXz 0 D o.'.d.D [ f # W B > Q 8 q %.V <.'.t.S N j {.[.9 - @   O ) |.4XtXyX#.",
"X n.4Xe.s P t.d e x b u.`.+.) W ] {.i.# ; 1 w A w 7 I J - 4 + *.{.&.E / X.`.f.l n H i u.] < 0.@X Xq ",
"8 X   y p 5 a q : b X C 2.v.7.G X > # + O z n #   + # g b 7 + # > > , 3.v.2.E X l t q y 7 r k .   7 ",
"0 - 7 8 V # , + @ y 1 7 $XU.&X#X_.0 X + 9 V 7 , N N # 7 w D + X 7 M.@X&XU.&Xw - h   + > 8 # Z # - 8 ",
"B x i E B 7 L G o + % #  XU.<XdXqX1.O # F 8 $ C W W F 8 O W & X K tXrXeXU.%X7 N + X w T w > W p &.B ",
"z.u.I 1.Q.] ,.u   N F 8 u 8.j.%X5XL # { o.C M F / Q W N B ~ =.O M $X=Xz.z.p 7 A C   7 u.L i.u.! &.s.",
"wXwXl.,.^.1.W 8 E W C 7 C G 4X6XI J & f < E W / v.|.W W E w z % C J oXeX! M 8 8 Q F M F ~ /.p.4.wX1X",
",X2Xv.) 3.V C i %.B B 0 E 2.0X0X< O # X ] OXV.V v.XXZ x.%Xa.- % > - %X9Xj.W N , C h k V B o.5.7.9XW.",
"4X3X4.b.+X' 7 } l j X 8 A / l.k.$ # X y x.;X.X7 ! 3.7 V.E.XX6 q O % o.c.) I 0 - j 1 w.# u +XL.5.@X4X",
"8.}.(.L.R.6.# a X V % O N j.4.W E M - 0 E <.X.B W W C L :.2.0 - 8 F W 5.l.J X # V + d - T >XP.m.pXd.",
"6.[.(.7.l.! w f 0 F O B 8.:X%X2.W 7 j V V w O E Q Q E 8 , w C k 9 F / oX*Xc.B , C Z i y Y l.g.s.}.s."
};
