/* XPM */
static char *_646098544951[] = {
/* columns rows colors chars-per-pixel */
"50 50 256 2 ",
"   c #1B7506",
".  c #2C6C03",
"X  c #2A6803",
"o  c #316A06",
"O  c #2B7C0C",
"+  c #297708",
"@  c #337B0B",
"#  c #3C7C0C",
"$  c #347705",
"%  c #2A7A17",
"&  c #3B7D13",
"*  c #347D1B",
"=  c #3D7E1B",
"-  c #337A15",
";  c #346C15",
":  c #33772B",
">  c #447805",
",  c #447C14",
"<  c #477819",
"1  c #4E7518",
"2  c #457E21",
"3  c #4A7B25",
"4  c #507E24",
"5  c #2D8304",
"6  c #2D8A0C",
"7  c #28850C",
"8  c #33820B",
"9  c #398909",
"0  c #2B9406",
"q  c #3B930C",
"w  c #369707",
"e  c #2C8314",
"r  c #2D8B14",
"t  c #2B8B19",
"y  c #268818",
"u  c #338414",
"i  c #3C8413",
"p  c #348C15",
"a  c #3C8C15",
"s  c #35841A",
"d  c #3D831B",
"f  c #348C1B",
"g  c #3B8C1C",
"h  c #2E9212",
"j  c #2D9818",
"k  c #339213",
"l  c #3C9115",
"z  c #34931C",
"x  c #3C931C",
"c  c #339A1D",
"v  c #3C9B1D",
"b  c #379A14",
"n  c #29A31A",
"m  c #3AA71B",
"M  c #34A903",
"N  c #2A8727",
"B  c #3C8524",
"V  c #358C22",
"C  c #3C8C22",
"Z  c #368929",
"A  c #2A9722",
"S  c #349423",
"D  c #3B9324",
"F  c #359B23",
"G  c #3D9B23",
"H  c #3D932B",
"J  c #3D9C29",
"K  c #36972C",
"L  c #3D9932",
"P  c #2E8C35",
"I  c #3CA324",
"U  c #3BA729",
"Y  c #37A737",
"T  c #32B125",
"R  c #16931B",
"E  c #47880A",
"W  c #46950C",
"Q  c #458B15",
"!  c #43841C",
"~  c #4A831D",
"^  c #448C1C",
"/  c #4B8C1C",
"(  c #498615",
")  c #538C1D",
"_  c #568719",
"`  c #429314",
"'  c #43941C",
"]  c #4B921D",
"[  c #439C1C",
"{  c #4B9B1C",
"}  c #469815",
"|  c #52931D",
" . c #539C1D",
".. c #5A921D",
"X. c #5B9B06",
"o. c #63871D",
"O. c #68991A",
"+. c #43A215",
"@. c #49A51A",
"#. c #55A71B",
"$. c #4CAC11",
"%. c #6FAA13",
"&. c #4B8524",
"*. c #448C23",
"=. c #4B8C23",
"-. c #468D29",
";. c #4B8D2D",
":. c #488529",
">. c #528525",
",. c #518B23",
"<. c #588B2A",
"1. c #449323",
"2. c #4B9324",
"3. c #449B22",
"4. c #4B9B24",
"5. c #44942A",
"6. c #4B932B",
"7. c #449C2B",
"8. c #4C9C2B",
"9. c #539423",
"0. c #5C9324",
"q. c #549B24",
"w. c #5A9B24",
"e. c #52942B",
"r. c #5A942D",
"t. c #539C2B",
"y. c #5B9C2B",
"u. c #478E33",
"i. c #598B33",
"p. c #439234",
"a. c #4B9434",
"s. c #459C32",
"d. c #4B9C33",
"f. c #4A9B39",
"g. c #539532",
"h. c #539C33",
"j. c #5B9C33",
"k. c #549D39",
"l. c #599637",
"z. c #62932C",
"x. c #639D2B",
"c. c #689828",
"v. c #639D33",
"b. c #639C3C",
"n. c #6A9938",
"m. c #759932",
"M. c #6B9129",
"N. c #44A323",
"B. c #4BA324",
"V. c #4CAC25",
"C. c #43A22C",
"Z. c #4DA32C",
"A. c #44A92B",
"S. c #4CA92B",
"D. c #44AB26",
"F. c #53A224",
"G. c #54A32B",
"H. c #5BA22D",
"J. c #53AB2B",
"K. c #5BAC2C",
"L. c #57A925",
"P. c #49B729",
"I. c #57B329",
"U. c #46A333",
"Y. c #4BA433",
"T. c #4CAA33",
"R. c #48A938",
"E. c #54A433",
"W. c #5BA433",
"Q. c #54AB34",
"!. c #5BAA33",
"~. c #53A33A",
"^. c #5BA23A",
"/. c #54AB3B",
"(. c #5CAC3B",
"). c #48B333",
"_. c #53B334",
"`. c #5CB334",
"'. c #5BB53C",
"]. c #59BA38",
"[. c #63A42E",
"{. c #64A828",
"}. c #65B72A",
"|. c #63A333",
" X c #6AA332",
".X c #63AB34",
"XX c #6BAB34",
"oX c #62A33A",
"OX c #64AC3C",
"+X c #6AAC3C",
"@X c #6AA33A",
"#X c #75A63A",
"$X c #62B33C",
"%X c #67B639",
"&X c #74B63D",
"*X c #78AA27",
"=X c #67C139",
"-X c #77C639",
";X c #589744",
":X c #509446",
">X c #779D4F",
",X c #4AA944",
"<X c #58A944",
"1X c #5AB344",
"2X c #57B645",
"3X c #5FAE55",
"4X c #64A344",
"5X c #64AC43",
"6X c #6BAD42",
"7X c #6BA749",
"8X c #78A944",
"9X c #68B747",
"0X c #72B344",
"qX c #77B746",
"wX c #67B653",
"eX c #78B956",
"rX c #6BA751",
"tX c #6FBE63",
"yX c #58C045",
"uX c #68C247",
"iX c #79C345",
"pX c #6AC355",
"aX c #78C254",
"sX c #81AE1F",
"dX c #819D37",
"fX c #84AF3F",
"gX c #84B63C",
"hX c #95B43A",
"jX c #8DC535",
"kX c #89AB42",
"lX c #84B948",
"zX c #86B958",
"xX c #92BC52",
"cX c #85B964",
"vX c #92BA7C",
"bX c #8AC648",
"nX c #87C858",
"mX c #92CE57",
"MX c #B0CB57",
"NX c #ADE751",
"BX c #87C866",
"VX c #9BD762",
"CX c #92CE6D",
"ZX c #A7DA72",
"AX c #A7CA66",
"SX c #90E36B",
"DX c #A4E566",
"FX c #A9E679",
"GX c #B6EF6E",
"HX c #D3F46E",
"JX c #C0EE5A",
"KX c #AEDA85",
"LX c #9BE083",
"PX c #B4EF8B",
"IX c #93CD81",
"UX c #CBFB92",
/* pixels */
"7.d.5.D e X o % y Y U 9.,./ - Y.$.} - u.f.2X2X<X3XZ.P.T P.R.G v T u zXqX .-Xe 7 N U D @ u g V <X] y.",
"+ C s.V D * = B K A f t.~ ^.x 1XNX*X< l.x z H :X6.Z.v ).m U <XP 3.8 ~..X=.5X8 r yX7 v *.= k.2.3./ 9.",
"@ 1.O   ,X5.B d.C.C.s &.=.^./.z HXhXo.9 W l :.>XBX1.u 4.p 7 * : s 3.[ Z.d = O 3.v 7 J g 2 l.j.} 2.9.",
"/ u V y K s.u (.!.^ & >.r.0XQ.r sXhXGXE 9 t.;.i.>X> { m S.B ; i.N G b 1.;.u.8.'..X-.E.1.1.d E.D g g.",
"6.u V J K   % s / # / y.@ g 3.c q.qXVX=.] [ @.y., x.$.M 0 (.xXO.R A J @ o & i *.PXi.BXq.#.K.7 V 7.(.",
"5.e S U 1X7.Y.*.1 nXnX&X{ 4.Z.U.I 3.& &.Y.c T q #.}.$.@.I uXGXX.n R.Z % - 2.! ^ *.:.KXzX9.{ O L 8.^ ",
"d.D T.T.Q.Y.pX2.z.8XqX5 a 8 $X1.p.g.~ + L yXc w }.L.' 5.3.m P.w j /.Z % g e.&.! x x ! zXeXj.nX' 6.~ ",
"5.O D C.8.S t g # VXF.B.{ F.y./ f.e.2.p R.pX'.{ %Xv s.<X- 6.4.0 l u f.H p t.-.2 G.' @ 7XcX<XqX' +XFX",
"2.t.V s 5.t c S.H.GX!.p l .Xx. X;XJ.b v G { I.mXqXD S s.IXvX:X, i + p 6 p t.^.3 cXzXH.Z.L p.= ) g.eX",
"/ ^.5.% H t c _.8 {.H.3.3.+XXX..!.V.w h p L.-XNXDXa k J PXPXZXgX~ H.k v p p .X,.KXUXt.D.j B a.7Xk.g.",
"*.5.1.s 7.S S.$X9 _ H.4.E.!..X] (.F.@.b D.=X#.-X-X@.7 + (.&XL.E fXGX5 F D l ` $ CX>Xp.U J - 7XeXBXeX",
"8.6.*.g + p z t.x.E x.H.] K.(.' *.qX-Xw @.V.{ #.+.+.1.2.VX#.w r m.{.8.t s.7.+ Q p V ,XL 6.$ nXBX$X8.",
"J ~.d.g 4.G.4.j.=.( DXVX@.B.Q.wXp.6.I.0 I.L.E { z z T.+XUX&Xq.R.] # H.-X3.s.6.1.+ l -.;.*.[ 8.d l !.",
"H 5.e., j.W.e.8.2.` %X.X .2.1.5Xf.S _.L.L.{.{ x L S F k *X#X&.N F g | bXq u * <X^ H.# ~ E.S.l 5.5 6 ",
"H = < &.j.h.^ Q.N.m k 2..X9X@X>.7./.3.9XZ.9 J.x E.f N 7 ` H.6.Z Z.!.$Xa 4.' g h.l.^ x.q.G.t.G N.l ' ",
"E.& &.&.CX6X1.P.n T I 1.6.qX@Xo.8 aXj.l ).).N.K.+.l % Z A.0 0 f.} { U.f.5.{ @.Q.1.6.] G./ , 2._.8.4.",
"1XE 1  XVX| _ v.i *.5.S F 7.@XdXm V.}.b I T.=.8Xx.q 0 U Y P C w.*.U U G Q } V.I.x.m.e.D f.g.p.,Xk.*.",
"4.( mXVX( 9.../ +X1.O J z 7.0Xo.e.! B._.m ].2.i.b.e m P.S.8 1.U.H 7.7.z Z.@.!.&X0. XoXE.g.f.f.pX1.u ",
"+./ c.#X[.y./ 9.j.x v 3.C.Z.oX8X:XrX3._.).c s g.:.L U w %.MX2.P V -.= g c p G.0.4.8.OX6X2.1.Z.9XD f ",
"@. .c.v.^ t.0XH.K.x k Q.l /.6Xb.;XLXe I ).A L -.! D A.q gXMX9 y C < & g y z g 1.'.pXPX|.(.S.v 4.<X4.",
"S.#.lXlX2.g 1.^ G._.D.Z.4.!.1.l.4.2.g 3.F ,XZ 3.K.@.  ; AXAX+ k ~ ~ a x s H 7.F C.wXBX6.4.B.G.4.@Xr.",
"v Q ) j.Q 4.g a ' uXN.l q.+ 1.E.w uX.Xi @.C.s p q #.s : :XtXg q ( Q {.!.O 9X2X7.U.s.<X<X4.Z.B.l rXl.",
"' q.x.q.!.B.G.G.Q.'.G ' oXQ s Z.w .Xl.q.} P.v O ' {.oXC K ).F H D.F./ !.G SXaXB f.<X1X*.h.g Y.A.u.* ",
"s 2. X[.@.J.`.F.x 7./.6XFXXX8 D.I.e.h.a 0 P.A.H 9X.X] !.V.V.N.V D.9Xk.d.N.N.s k.k.d.(.t.k.R.I D.f.B ",
"4.2.y.w.{ B.&X3.4.Q.6.6XFX9.$X[ Y./.1XV.P.m c N.!.B.f F.*XjXjXd.SX,XK E.s 4._.J /.9XW.E.!.N.3.P.2.g ",
"@ ] 9.| w.{ J.4.!.W.t.W.) |.0XZ.].U.k v $.#.[ F.].I I 9 %.HXmXB 3Xy L 5.~.BX6 D._.!.E.Q.J.@.B./.*.t.",
"$ 4./ 9.[.oX!.q. .XX.Xw.] 0X2.8.}.S.x @.%.NXbX9 I Y y ` sXHXc.N L L 4.Q d f C.m @.A.D 1. .`.3.U..XE.",
" .t.8 # 0.=..X$X[.x.XX[.t.+XOXoXF.K.L.}.%.NXGXq.G 2XuX .E W 8.,X,XT.g Q Q '.S.J.K._.Q.2.] (.U j D p ",
"q.a ' 6X8Xr.W.2.XXm.{.%X$XE.e.r.G.G.F.#.X.X.[.2.7 }.UXm.E   ).I D.c x i gXmXF.'.^.| K.B.k.wX2XR D J ",
"FXE.g +X8X0.y.q.x.#Xc.a J.(.r.<.Y.Z.V.#.#.` 1.2.a }.bX<.l.L P.+.9 p 1X( mXGXF.z (.nX{.l 1XwXy j /.1X",
"qXS p 2.ZXc./ ] #XM.z.1.2XT.=.c.<X1X].+.D.uXQ.B.q.| i *.<XJ uXV.# nXUX( *X0.4.N.c _.4.6.] J.x S.Z.Q.",
"6.  p ] fX..q.H.0.m.8XE.A.Q.q.m.<XuX=X+.b _.h B.] ^ A F U.v 9Xt ; fXMX> - 9X2.b m R D j. .+.J.e.l 7 ",
"T 9 ..] U U.z.m._ 0.c.O.[.B..Xm.B.0X[ m b B.O...!.C.H ;.a.f.f.:.8 g -.7 w }.W W '.+.w }.#.4.v H g x ",
"@...HX4.v u >.z.) | c.#XqXB.4.[.'.!.{ N.@..XPXQ l v u h.^.5.B *.4.<XwXT.V.I.W I.].Z.L.W  .Q.Y.V 3.8.",
"8 xXAX) g a 9.9.2.4.[.0.Q v G.!.<XE.E.' a Q .X2.l E.s *.d 2.d E.3.6.1.'.].[ J.!.x x 3.l `.N.C.f 4.4.",
". xXkX~ ] i ^ W.G.4.F.&Xq.3.Q.Z.2.E.f f + W.E.i y.F.x r f 1.g pXSXa @ q.p E.!.^ E.3.4.G.I.m p wXr.6.",
"..lX#X....^ 2..Xq.' qX Xw.E.9XZ.oX5X5.s 5.aX6.,.|./ Z.G _.D & e.<X& [.$ @ 1.k.- t.*.d.nX] v G.j.z.i.",
"{.{.9 ] 4.q.y.w.Q K.W.[.) 9.E.2X4.E.1.C *.5.i t.Q ] K.Z.2XR.s.;.% 9.gXVXaXrXBXe.d ! b.=.G.g t.l.b.:.",
".X.XG.4.Q.' ....x.y.|./ 0.r.W.OX[ !.q.6.;.1.G.g H.2.a ' Z.5.C a.a.,.bXGXy.;.CXeX~ oX&.~ 6.Q e.<.< &.",
"H. X{ x _.4.qX8X/ |..Xv.z.#Xr.e.B.[ W.5Xr.s d.6.mXy.a p /.~.a.:XB Q 0.H.] h.:.;.g.t.! ~ d & j.~ ( 2.",
"m.#Xx.' G G.x. X# !.^ 9.@X8X+Xj.}.Z.6 8.d.*.s.=.PXlX@ U R.6.BXrXe /.l 5 J.9X*.:.g 3.^ $ d :.6.v.-X} ",
"o.1 o.y.[ 4.# 0.!.Z.E./ zXqXr.y..XS.U 8.k.5.D + m.lXG.].7.; ;X:.L 1XG _.6 !.! B s.N.q t.= - g.*.L.F.",
"_ _ m.x.q.4.x.,.G.g 5X@Xv.H.OXt.'.7.s.~.=.*.5.9XVXo $XuXY.=.4X-.S J J ).5 l / 6.7.k ` Q . 4XeXe.5X-.",
".X_ m.( ] y.|./ e.*.r.<.n.j.!.Z.9XC.h.0X*.6.-.=.9X! +Xt.@ g d.d y U.Z.x [ ` ! k./.p K.9., i.&.>.>X4 ",
"[ /  X..Q H.y.~ r.r.ZXz.0.9..XG.Q.E.j.Y./.t.) <.2.G.d $ + f E.! p g 2.Q.q.Q ,.oX* s ! / @X, >.n.cX1 ",
"B.' ^ w.i a 1.oX8Xi.BXe./ y.!.%X2./ E.Q.T.Q z.z./ ~.f u O s.d.. '.3.. W.aX/ . zXB B @ # q.Q zXn.kXxX",
"W.q.y.q.2.Y.V g.<.1 =.d.e.qX[.L.q.] ] [ J.H.c._ t.5.V B f.N 9X6.I 9Xt.i h.g.j.tXa.: B 6.q.#.nXzXn.4 ",
"w.H.] 2.' l S k.4 2 ^.1X1.( x.{.| K.%X#.{. Xz./ *.s.% u.wX% H ,XS.K.w.. O :.l.B ; % :.^ ` { / 8X;X< ",
"i.q.K.Q &.4X;.G.2.( j.q.=.! l.0Xh.oXr. Xw. .[.n.n.;.r U 5.6.6.J ^.4X2 , 3.h P.V.g -.k.v.< z.3 ; ;.l.",
"v.1.!./ b.4X=.4.t.,.r.1.=.! e.j.^.j.9.x. . .9.n.i.e.G 2X5.! B 7.eXCX4X^ 8.h U ].!.5XeXb.< 1 < 2 = -."
};
