/* XPM */
static char *b713b87208d74d849ff4531498cd2630hIKpGKirlvDT9N5r[] = {
/* columns rows colors chars-per-pixel */
"50 50 224 2 ",
"   c None",
".  c #191614",
"X  c #1C1917",
"o  c #221E1B",
"O  c #291919",
"+  c #3E1E1C",
"@  c #26221E",
"#  c #390D23",
"$  c #211F20",
"%  c #242124",
"&  c #2D2A24",
"*  c #2E292A",
"=  c #342B26",
"-  c #34322C",
";  c #3A352D",
":  c #373828",
">  c #3B3733",
",  c #461C19",
"<  c #571A1B",
"1  c #51100D",
"2  c #641717",
"3  c #5B0E3E",
"4  c #521337",
"5  c #53162C",
"6  c #771E22",
"7  c #6E1E39",
"8  c #562825",
"9  c #41372D",
"0  c #443933",
"q  c #522B2F",
"w  c #682729",
"e  c #77292D",
"r  c #642834",
"t  c #782C36",
"y  c #6A3B35",
"u  c #693635",
"i  c #763B38",
"p  c #6A342A",
"a  c #564519",
"s  c #4B443B",
"d  c #435B3E",
"f  c #744935",
"g  c #61443F",
"h  c #5E1041",
"j  c #631043",
"k  c #6D134C",
"l  c #6D1B4C",
"z  c #681647",
"x  c #73154D",
"c  c #751B4B",
"v  c #7B1655",
"b  c #7C1A56",
"n  c #761853",
"m  c #68124B",
"M  c #5E2E43",
"N  c #7F364A",
"B  c #79285C",
"V  c #6C3553",
"C  c #763C59",
"Z  c #6F2E4C",
"A  c #7A3A68",
"S  c #534C44",
"D  c #575649",
"F  c #504748",
"G  c #654644",
"H  c #77424A",
"J  c #695447",
"K  c #7D4157",
"L  c #655B55",
"P  c #7F5351",
"I  c #676459",
"U  c #68765C",
"Y  c #716E63",
"T  c #787669",
"R  c #7E7C72",
"E  c #6F666D",
"W  c #656263",
"Q  c #9F1E1D",
"!  c #9A3435",
"~  c #8D2D2F",
"^  c #AA3A37",
"/  c #8B433D",
"(  c #9F642C",
")  c #821956",
"_  c #841A5B",
"`  c #8A1B5E",
"'  c #861559",
"]  c #97185D",
"[  c #87275B",
"{  c #98265B",
"}  c #963A56",
"|  c #8D394D",
" . c #8E1B61",
".. c #951D64",
"X. c #9A1D66",
"o. c #9C1E69",
"O. c #A11E6B",
"+. c #8D2867",
"@. c #952266",
"#. c #992166",
"$. c #9C226A",
"%. c #9F296D",
"&. c #883667",
"*. c #9C3773",
"=. c #9A366B",
"-. c #A1246D",
";. c #A33867",
":. c #A52A72",
">. c #A23474",
",. c #A93B7A",
"<. c #834446",
"1. c #984947",
"2. c #88574B",
"3. c #935649",
"4. c #864555",
"5. c #9B4956",
"6. c #885558",
"7. c #935C5C",
"8. c #A5434B",
"9. c #B44D55",
"0. c #BB525D",
"q. c #A25C59",
"w. c #99634E",
"e. c #986854",
"r. c #88695F",
"t. c #A66C52",
"y. c #B56654",
"u. c #A3725B",
"i. c #AB765C",
"p. c #A67758",
"a. c #B37D5D",
"s. c #B7795B",
"d. c #87476A",
"f. c #885162",
"g. c #9B5764",
"h. c #8B4973",
"j. c #994479",
"k. c #945273",
"l. c #A94766",
"z. c #A7417D",
"x. c #AA556B",
"c. c #996A65",
"v. c #8D6E64",
"b. c #A96A66",
"n. c #B6656B",
"m. c #AF7B66",
"M. c #B77C63",
"N. c #A66975",
"B. c #AF7E74",
"V. c #C84D4F",
"C. c #C3775B",
"Z. c #CE685C",
"A. c #C15564",
"S. c #C07978",
"D. c #B7815E",
"F. c #878377",
"G. c #BB8767",
"H. c #BD9176",
"J. c #B2846B",
"K. c #C88957",
"L. c #C8965B",
"P. c #C58867",
"I. c #D18A6B",
"U. c #CC956C",
"Y. c #C0926F",
"T. c #CB9974",
"R. c #C39775",
"E. c #D79A7A",
"W. c #D38D77",
"Q. c #E59A7A",
"!. c #D7A27B",
"~. c #CEA07C",
"^. c #E4A27F",
"/. c #E2C367",
"(. c #AF3F82",
"). c #995B87",
"_. c #A94782",
"`. c #B54A84",
"'. c #B2538B",
"]. c #B95992",
"[. c #996888",
"{. c #897D83",
"}. c #8A7C95",
"|. c #8F658C",
" X c #AB6B95",
".X c #C17A84",
"XX c #8C8699",
"oX c #98959C",
"OX c #948B8B",
"+X c #A48D83",
"@X c #B69B88",
"#X c #AE948A",
"$X c #B7A79C",
"%X c #B1A38A",
"&X c #9F82A1",
"*X c #A997AF",
"=X c #9FA0B1",
"-X c #ABAAB9",
";X c #B3ABB1",
":X c #C89D88",
">X c #EB9B80",
",X c #DBAA84",
"<X c #D9A886",
"1X c #DEB18C",
"2X c #C4A897",
"3X c #DDAE92",
"4X c #CEB198",
"5X c #D4AF91",
"6X c #E5A986",
"7X c #E3B58C",
"8X c #E2AC97",
"9X c #E9B996",
"0X c #F1B193",
"qX c #EDBEA0",
"wX c #E9C49B",
"eX c #EEC9A6",
"rX c #F1C4A8",
"tX c #B3B9C9",
"yX c #B5B6CA",
"uX c #C2B0C5",
"iX c #CDC9D9",
"pX c #D5D8E4",
"aX c #DDE1EB",
"sX c #E2E5F0",
/* pixels */
"                                                                                                    ",
"                                                      d.d.                                          ",
"                                                    d.4 4 &.                                        ",
"                                                  &.4 # # 4 *.].                                    ",
"                                                d.H P f 8 + r :.(.                                  ",
"                                                6.J.R.H.p.f u [ -.:.`.                              ",
"                                              g.a.H.<X1XR.D.p.N X.-.:.(.                            ",
"                                            N.J.Y.~.1XwX1X!.!.p.} -.$.-.(.                          ",
"                                            b.R.U.,X7XwX1X7XwX!.n.-.$.-.-._.                        ",
"                                          f.m.R.T.!.^.7X7X1XwXwX<X;.-.-.-.-.'.                      ",
"                                          4.J.a.D.G.P.T.!.!.wXeXwXx.X.$.-.O.>.                      ",
"                                          C m.e.u.p.D.D.D.D.!.wXwX.X..X.O.-.-.'.                    ",
"                                        A 6.H.@Xv.G.!.!.D.D.L.^.9XS.X.#.$.$.$.,.                    ",
"                                        V B.$XI : U.9X!.~.$XH.,X9Xn.@.$.%.$.$.,.                    ",
"                                        N.8X4XU J 7XwX5X$XD D 4X9Xn...$.o.#.#.>.                    ",
"                                        Q.Q.0X1X3XeXeX7X%Xd d 4X9Xx.#.$.$.#.o.>.                    ",
"                                      :XM.C.I.U.P.>X6XQ.6X6X8XrX8Xl.#.$.$.@...,.                    ",
"                                        u.w.i.W.6X8X^.P.C.Q.0XrXqX;.#.@...#.#.,.                    ",
"                                        c.e.w./ 3.b.i.2./ C.6X9X8X=. .@.@...$.z.                    ",
"                                        P 6.u.1.w < < p w.t.s.E.W.+. ... ....._.                    ",
"                                          C e.m.y.y.C.U.D.t.t.D.5.'  . . . .#.                      ",
"                                            Z r.t.a.U.U.D.t.e.<.b b b _ _ [ *.                      ",
"                                            C z H 3.w.w.3.<.Z z n v b _ v [                         ",
"                                              &._ n c l k j j j k x x k l                           ",
"                                              =.@.B h m B b m h 3 j j k &.                          ",
"                                              ).&.XXXXB +. X_.x 3 j c ) j.                          ",
"                                          yX-X}.A |.-X&X).yXiX_.j x v ) ,.                          ",
"                                rX4X-XyX=XyXXXE }.yXiXpXpXpXiX|.3 x c ) #._.                        ",
"                              Q.6X<X&XtX;X;X#X{.=XpXsXaXpXuX X&.B h.B [ @.&.                        ",
"                              G.M.2XoXoXH.U.Q.Q.$XtXpXiX*X,...>.                                    ",
"                                    ;Xv.m.y.Z. X{.}.&Xh. .....:.                                    ",
"                                    {.      g.A V l v ' ..o.X.-.                                    ",
"                                    OX    B k v  .v  . .X.o.o.$.                                    ",
"                                  OX    B n  . . . .o.o.o.O.o.%.                                    ",
"                                  <.c.h.b b  .b v ..X.o.o.O.O.;.                                    ",
"                                  Q ^ 8.} N l n  ...o.o.O.O.X.;.                                    ",
"                      d.J./.      e 1.~ ! ~ r c  .o.o.o.O.X.] V.                                    ",
"                      r.f.U.2.s s 8 u y t 6 q &...o.o.o.X.X.{ V.                                    ",
"                      f y g s S S w u F 0 1 r l.*.$.#.#.X...                                        ",
"                      < , 9 D R F.! r.D 0 L 5.0.0.z.#.X.] {                                         ",
"                      G 9 s T F.F./ F.T @ D x.0.9.0.l.{ ' 7                                         ",
"                      0 ; I F.OX#X~ g.D.a 0 @Xg.9.9.9.} 7 8 1.                                      ",
"                      ; 9 Y F.T g 6 V 4.D.( s.&.4.5.8.1.4.2.q.                                      ",
"                      - 9 Y U > O = g J e.K.,.%.E y Z ! ~ w i H > @ = >                             ",
"                      ; ; Y T * % X = q r g.`.-.V 9 M u     8 + o I T : ;                           ",
"                        = s R - % % % 1 2 6 k.>.k L W >       @ ; OXF.D =                           ",
"                        & - D F % % @ O 1 1 e  Xq > >         o - Y T S -                           ",
"                          & : - . . . @   i r [.              * . F S &                             ",
"                            ; - X X -                           & . o                               ",
"                                                                                                    "
};
