/* XPM */
static char *b5c8cbe2f9b543c8fb98d9a70ef8e6adrU1e3JxcYeBYI1zI[] = {
/* columns rows colors chars-per-pixel */
"50 50 132 2 ",
"   c None",
".  c #992B1E",
"X  c #862C24",
"o  c #8D2B25",
"O  c #8A272F",
"+  c #842C2A",
"@  c #8D2B2B",
"#  c #9D2727",
"$  c #942C25",
"%  c #9D2A25",
"&  c #95272C",
"*  c #9C272A",
"=  c #932C2A",
"-  c #9B2B2A",
";  c #823126",
":  c #8D3127",
">  c #963126",
",  c #94322B",
"<  c #9A302A",
"1  c #8E2C32",
"2  c #982731",
"3  c #932B31",
"4  c #9A2E30",
"5  c #A22726",
"6  c #A12925",
"7  c #AA2C26",
"8  c #A2252A",
"9  c #A92629",
"0  c #A02928",
"q  c #A0292A",
"w  c #A02A2B",
"e  c #A52828",
"r  c #A02C29",
"t  c #A02C2A",
"y  c #A02E2B",
"u  c #A4292C",
"i  c #A42B2D",
"p  c #A32C2C",
"a  c #A02D2E",
"s  c #A22B2A",
"d  c #A82C2E",
"f  c #AA2C2B",
"g  c #BD2D23",
"h  c #B22E2B",
"j  c #B92D2D",
"k  c #A13025",
"l  c #A93027",
"z  c #AE322D",
"x  c #A63C28",
"c  c #B63127",
"v  c #B53226",
"b  c #B73226",
"n  c #B73027",
"m  c #BD3123",
"M  c #BA3026",
"N  c #BC3326",
"B  c #BB3425",
"V  c #BE3124",
"C  c #B03128",
"Z  c #B4322B",
"A  c #B3312A",
"S  c #BB302A",
"D  c #BF332C",
"F  c #BE332E",
"G  c #BB322C",
"H  c #A02730",
"J  c #A22D31",
"K  c #AB3033",
"L  c #B73732",
"P  c #BE3634",
"I  c #BF3832",
"U  c #C52F26",
"Y  c #C42F25",
"T  c #CE2F25",
"R  c #C72F29",
"E  c #C42E2B",
"W  c #C82F2B",
"Q  c #D42F2C",
"!  c #DC2E2C",
"~  c #C63123",
"^  c #C33025",
"/  c #C33126",
"(  c #C43127",
")  c #CB3226",
"_  c #CC3125",
"`  c #CC3124",
"'  c #C53228",
"]  c #C63228",
"[  c #C6312A",
"{  c #C5302C",
"}  c #C6322C",
"|  c #C7322D",
" . c #C3332A",
".. c #C93029",
"X. c #C83229",
"o. c #CB3328",
"O. c #CA322B",
"+. c #CE3328",
"@. c #CE3329",
"#. c #CF312A",
"$. c #CD362A",
"%. c #CA312E",
"&. c #CB312B",
"*. c #D13127",
"=. c #D43324",
"-. c #D23426",
";. c #D33527",
":. c #D93227",
">. c #D53329",
",. c #D13528",
"<. c #D43629",
"1. c #D5342B",
"2. c #D3302D",
"3. c #D2332D",
"4. c #D7322F",
"5. c #D1342E",
"6. c #D4352C",
"7. c #DB312A",
"8. c #DC3329",
"9. c #D8332C",
"0. c #CE2F32",
"q. c #C23430",
"w. c #C53531",
"e. c #CF3331",
"r. c #D93030",
"t. c #B2621D",
"y. c #A75322",
"u. c #AD5823",
"i. c #A76425",
"p. c #C07723",
"a. c #D7A015",
"s. c #F5BE16",
/* pixels */
"                                                                                                    ",
"                                                                                                    ",
"                                                                                                    ",
"                                                                                                    ",
"                                                                                                    ",
"                                            Z q.2.4.e.D b                                           ",
"                                        %.<.$.[ { S B / *.7.-.C                                     ",
"                                    %.7./ r $ o o o @ + X % B 8.&.                                  ",
"                                  6._ > @ = i J $ = p - - = 1 % $.:.                                ",
"                                <.B + = < $ $ - @ - = 8 $ > i @ @  .9.                              ",
"                              <.m @ = % $ # 6 - @ & $ 6 % q X < = @ _ -.                            ",
"                            ] X.; - - % r - # - $ = > % 6 # - o < = - <.F                           ",
"                            =.= 3 o $ % % r 6 # o = % e 5 6 9 # o < @ Z r.                          ",
"                          0.v - = @ # * * * $ = $ , o o @ O O = @ - - : 5.                          ",
"                          2.= J + 1 @ : = $ = - O & q q u r - < , - $ = %.                          ",
"                          [ X % , < % * $ - * $ * $ @ $ $ $ $ - * % $ 3 X.                          ",
"                          { : % - - = - < - < = O = r - - - k < - r 7 $ (                           ",
"                          [ o - - - 6 # % = = - @ = $ $ % - * % # & 9 = $.                          ",
"                          U = = $ * 6 % 6 % * = @ = = 6 q q q % r $ % $ _                           ",
"                          / @ = $ q 6 q % r = o = = = 6 q 6 6 6 6 @ > % _                           ",
"                          ( @ > $ r e 6 6 6 $ o $ @ @ % % * * = = + , - [                           ",
"                          %.= = o $ $ @ o @ + $ O - @ @ $ * < = 3 < - 6 %.                          ",
"                          #.= 4 $ $ - - # u q $ $ $ > - - - $ * = - o < }                           ",
"                          %., & - $ = = = 3 - $ $ - < % < r < % r d # k  .                          ",
"                          %.= k < - < % r r - - o $ = % % * $ $ % = = k  .                          ",
"                          %.% r $ 6 % 6 % % = - $ $ & % 6 % 6 e 6 = % l j                           ",
"                          #.* # $ % 6 6 r % = = @ 3 @ $ % % 6 - o O $ A Z                           ",
"                          #.- = o = o @ o $ @ = o = 1 , * : 3 , i.y.$ Z Z                           ",
"                          &.r % < , = @ , = $ # 3 $ $ % - $ $ u.s.a., Z Z                           ",
"                          ( k @ - * $ % - < > = @ $ % % q - q x t.t.1 L z                           ",
"                          g e < - - - - - # % - & = $ % % . % - = 2 = m K                           ",
"                          G d - % 6 % % % % % & = , % 6 % 6 % % % % = m                             ",
"                          P 7 - $ 5 % % 6 % # * = = % 6 6 % 6 6 % % $ g                             ",
"                          I 7 - % 5 % 6 6 % % - @ $ - 6 % % % 6 # % @ {                             ",
"                          F z = # 5 6 % 6 % 6 $ & $ % % % 6 % 6 % - @ o.                            ",
"                          f h $ % . 6 6 . 6 # = = $ $ 6 6 6 6 % # - @ (                             ",
"                          Z Z o = 6 6 % 6 % % @ $ & % % 6 # % 6 * > = ]                             ",
"                          L z : = % % 6 % . - , $ & $ % 6 6 6 6 $ $ = /                             ",
"                            C = o 6 % % 6 6 * @ $ & $ % 5 6 % 6 = $ 2 {                             ",
"                            h * o 6 - % % 6 & = * * & * * - % % = $ 2 ]                             ",
"                            b * = @ = @ = = = < * 4 @ @ @ @ @ @ @ - 4 ]                             ",
"                            S * = @ @ = @ = = = = $ , = = = = = = $ d  .                            ",
"                            q.o.` ` ` _ ` ` T _ T _ ` ` ` ` o.` o.X.4.z                             ",
"                                                                                                    ",
"                                                                                                    ",
"                                                                                                    ",
"                                                                                                    ",
"                                                                                                    ",
"                                                                                                    ",
"                                                                                                    "
};
