/* XPM */
static char *a077f08f0c744835f541ff032a990cffFpnTOd1mT1qACGPX[] = {
/* columns rows colors chars-per-pixel */
"50 50 224 2 ",
"   c None",
".  c #191614",
"X  c #1C1917",
"o  c #221E1B",
"O  c #291919",
"+  c #3E1E1C",
"@  c #26221E",
"#  c #390D23",
"$  c #211F20",
"%  c #242124",
"&  c #2D2A24",
"*  c #2E292A",
"=  c #342B26",
"-  c #34322C",
";  c #3A352D",
":  c #373828",
">  c #3B3733",
",  c #461C19",
"<  c #571A1B",
"1  c #51100D",
"2  c #641717",
"3  c #5B0E3E",
"4  c #521337",
"5  c #53162C",
"6  c #771E22",
"7  c #6E1E39",
"8  c #562825",
"9  c #41372D",
"0  c #443933",
"q  c #522B2F",
"w  c #682729",
"e  c #77292D",
"r  c #642834",
"t  c #782C36",
"y  c #6A3B35",
"u  c #693635",
"i  c #763B38",
"p  c #6A342A",
"a  c #564519",
"s  c #4B443B",
"d  c #435B3E",
"f  c #744935",
"g  c #61443F",
"h  c #5E1041",
"j  c #631043",
"k  c #6D134C",
"l  c #6D1B4C",
"z  c #681647",
"x  c #73154D",
"c  c #751B4B",
"v  c #7B1655",
"b  c #7C1A56",
"n  c #761853",
"m  c #68124B",
"M  c #5E2E43",
"N  c #7F364A",
"B  c #79285C",
"V  c #6C3553",
"C  c #763C59",
"Z  c #6F2E4C",
"A  c #7A3A68",
"S  c #534C44",
"D  c #575649",
"F  c #504748",
"G  c #654644",
"H  c #77424A",
"J  c #695447",
"K  c #7D4157",
"L  c #655B55",
"P  c #7F5351",
"I  c #676459",
"U  c #68765C",
"Y  c #716E63",
"T  c #787669",
"R  c #7E7C72",
"E  c #6F666D",
"W  c #656263",
"Q  c #9F1E1D",
"!  c #9A3435",
"~  c #8D2D2F",
"^  c #AA3A37",
"/  c #8B433D",
"(  c #9F642C",
")  c #821956",
"_  c #841A5B",
"`  c #8A1B5E",
"'  c #861559",
"]  c #97185D",
"[  c #87275B",
"{  c #98265B",
"}  c #963A56",
"|  c #8D394D",
" . c #8E1B61",
".. c #951D64",
"X. c #9A1D66",
"o. c #9C1E69",
"O. c #A11E6B",
"+. c #8D2867",
"@. c #952266",
"#. c #992166",
"$. c #9C226A",
"%. c #9F296D",
"&. c #883667",
"*. c #9C3773",
"=. c #9A366B",
"-. c #A1246D",
";. c #A33867",
":. c #A52A72",
">. c #A23474",
",. c #A93B7A",
"<. c #834446",
"1. c #984947",
"2. c #88574B",
"3. c #935649",
"4. c #864555",
"5. c #9B4956",
"6. c #885558",
"7. c #935C5C",
"8. c #A5434B",
"9. c #B44D55",
"0. c #BB525D",
"q. c #A25C59",
"w. c #99634E",
"e. c #986854",
"r. c #88695F",
"t. c #A66C52",
"y. c #B56654",
"u. c #A3725B",
"i. c #AB765C",
"p. c #A67758",
"a. c #B37D5D",
"s. c #B7795B",
"d. c #87476A",
"f. c #885162",
"g. c #9B5764",
"h. c #8B4973",
"j. c #994479",
"k. c #945273",
"l. c #A94766",
"z. c #A7417D",
"x. c #AA556B",
"c. c #996A65",
"v. c #8D6E64",
"b. c #A96A66",
"n. c #B6656B",
"m. c #AF7B66",
"M. c #B77C63",
"N. c #A66975",
"B. c #AF7E74",
"V. c #C84D4F",
"C. c #C3775B",
"Z. c #CE685C",
"A. c #C15564",
"S. c #C07978",
"D. c #B7815E",
"F. c #878377",
"G. c #BB8767",
"H. c #BD9176",
"J. c #B2846B",
"K. c #C88957",
"L. c #C8965B",
"P. c #C58867",
"I. c #D18A6B",
"U. c #CC956C",
"Y. c #C0926F",
"T. c #CB9974",
"R. c #C39775",
"E. c #D79A7A",
"W. c #D38D77",
"Q. c #E59A7A",
"!. c #D7A27B",
"~. c #CEA07C",
"^. c #E4A27F",
"/. c #E2C367",
"(. c #AF3F82",
"). c #995B87",
"_. c #A94782",
"`. c #B54A84",
"'. c #B2538B",
"]. c #B95992",
"[. c #996888",
"{. c #897D83",
"}. c #8A7C95",
"|. c #8F658C",
" X c #AB6B95",
".X c #C17A84",
"XX c #8C8699",
"oX c #98959C",
"OX c #948B8B",
"+X c #A48D83",
"@X c #B69B88",
"#X c #AE948A",
"$X c #B7A79C",
"%X c #B1A38A",
"&X c #9F82A1",
"*X c #A997AF",
"=X c #9FA0B1",
"-X c #ABAAB9",
";X c #B3ABB1",
":X c #C89D88",
">X c #EB9B80",
",X c #DBAA84",
"<X c #D9A886",
"1X c #DEB18C",
"2X c #C4A897",
"3X c #DDAE92",
"4X c #CEB198",
"5X c #D4AF91",
"6X c #E5A986",
"7X c #E3B58C",
"8X c #E2AC97",
"9X c #E9B996",
"0X c #F1B193",
"qX c #EDBEA0",
"wX c #E9C49B",
"eX c #EEC9A6",
"rX c #F1C4A8",
"tX c #B3B9C9",
"yX c #B5B6CA",
"uX c #C2B0C5",
"iX c #CDC9D9",
"pX c #D5D8E4",
"aX c #DDE1EB",
"sX c #E2E5F0",
/* pixels */
"                                                                                                    ",
"                                          d.d.                                                      ",
"                                        &.4 4 A                                                     ",
"                                    ].*.4 # # q &.                                                  ",
"                                  ,.%.7 + 8 f P | d.                                                ",
"                              `.:.-.[ y f p.H.R.J.6.                                                ",
"                            (.:.-.$.N p.D.H.7X,XH.m.g.                                              ",
"                          ,.-.-.-.} u.!.,X1XwX1X~.G.G.N.                                            ",
"                        _.-.-.-.%.b.!.wX7X,XwX7X,XR.T.b.                                            ",
"                      '.-.-.-.O.;.<XeXwX1X6X7X!.!.T.T.m.f.                                          ",
"                      >.O.-.$.X.x.wXwXwX!.!.U.Y.G.D.p.J.4.                                          ",
"                    '.-.-.$.#....XwXwX!.D.D.G.K.D.u.e.p.K                                           ",
"                    z.$.$.$.#...S.9X^.U.D.D.!.^.G.v.@X#X6.C                                         ",
"                    >.$.$.$.$.@.n.wX1XH.$X@X^.7XR.; U 2XB.V                                         ",
"                    >.$.$.$.$...n.9X<XD I $X3X9X8XJ U 5X8XN.                                        ",
"                    >.o.$.#.$.#.l.wX4Xd d %X3XwXrX3X7X0X>XW.                                        ",
"                    ,.X...#.$...l.9XeX4X6X6XQ.6XQ.P.U.I.C.s.:X                                      ",
"                    >.#.#.@.@.#.;.9XrX0XQ.I.P.^.6X6XW.s.w.u.                                        ",
"                    z.....@.#...=.8X9X>Xs./ 2.i.b.7./ w.e.c.                                        ",
"                    _.#.....@.` [ W.!.M.t.3.p 1 < w 1.p.6.f.                                        ",
"                      @... .` ` _ 5.a.t.t.G.U.C.y.y.m.7.C                                           ",
"                      *.` ` _ _ ) b | w.e.D.U.U.s.p.7.Z                                             ",
"                        B v ) v v n x Z H 3.7.w.2.H M C                                             ",
"                          n k x x k j j 7 z l c n ) &.                                              ",
"                          &.x j h h h m B B m h B @.>.                                              ",
"                          j.) x j h m _. Xb V XX}.&.).                                              ",
"                          *._ c k j _.iXuX).&XyX|.A }.=XyX                                          ",
"                        _.$.` c k h ).pXpXaXaXiX-X}.E XXyX-XyXyX4XqX                                ",
"                        &.@.[ B &.A +. XuXaXaXsXiX=X{.+X;X;XtXoX<XQ.Q.                              ",
"                                    >. .*.*XiXpXyX$X>XE.I.H.oXoX2XM.M.                              ",
"                                    :..... .h.&XXX{.W.Z.t.J.OX=X                                    ",
"                                    -.X.o. . .n m B A k.      v.                                    ",
"                                    -.o.o.X....._ ' v n B     }.                                    ",
"                                    -.$.-.$.o... .'  . .v B     OX                                  ",
"                                    >.X.O.O.o.o.@.b v b b b h.b.<.                                  ",
"                                    ;.X.o.O.o.X.@. .v l N } 8.^ Q                                   ",
"                                    V.] X.O.o.o.X. .n r i ! ~ / e       /.J.d.                      ",
"                                    V.{ ..o.o.o.X.X.[ r 6 e M u 8 s s P L.f.r.                      ",
"                                        X...X.X.@.;.x.w < q F y w g d s g y f                       ",
"                                        { ] ..#.z.0.0.5.L 9 D r./ F.v.D s + <                       ",
"                                        t ' { 9.0.9.0.x.D @ T +X/ F.F.T s 9 G                       ",
"                                      1.< c } 9.9.9.g.$X0 a i.6.~ #XF.F.I ; s                       ",
"                                      t.2.P | 8.} 4.&.y.( K.4.H e G R R Y 9 ;                       ",
"                            > & % > <.y 8 ~ ! N Z E *.,.K.7.J g = o > Y Y 9 -                       ",
"                          ; > T L o + 8     u G , V :.`.g.r 8 = o % * Y Y : >                       ",
"                          = D F.OX> @       > W W z ,.k.2 2 , O o % - R s &                         ",
"                          - D T Y - o         > > q  X6 1 < O % % % M D ; &                         ",
"                            & F s . *               [.w y   o . X X > : &                           ",
"                              @ . &                           - X X - ;                             ",
"                                                                                                    "
};
