/* XPM */
static char *_d40277eb61f45f7d65d54ffa534d791ZBSQmyzdGoOKsiUm[] = {
/* columns rows colors chars-per-pixel */
"25 50 214 2 ",
"   c None",
".  c #391F19",
"X  c #37241B",
"o  c #2A2926",
"O  c #322D29",
"+  c #393833",
"@  c #4A2B1D",
"#  c #653C1E",
"$  c #4F1F2B",
"%  c #581C37",
"&  c #641E3D",
"*  c #681F3D",
"=  c #611D37",
"-  c #701E3E",
";  c #542A25",
":  c #583829",
">  c #562039",
",  c #5E233B",
"<  c #5A2633",
"1  c #453C38",
"2  c #5B3634",
"3  c #732F25",
"4  c #653A22",
"5  c #663826",
"6  c #783227",
"7  c #64223E",
"8  c #6A2738",
"9  c #73283D",
"0  c #683532",
"q  c #763B35",
"w  c #38433A",
"e  c #42433F",
"r  c #5B463A",
"t  c #6A4128",
"y  c #76472F",
"u  c #6C433B",
"i  c #674D3E",
"p  c #7B4639",
"a  c #7E513E",
"s  c #6B1F41",
"d  c #661F40",
"f  c #652341",
"g  c #6C2242",
"h  c #6B2942",
"j  c #742245",
"k  c #752949",
"l  c #7C2947",
"z  c #693648",
"x  c #783546",
"c  c #7A3C54",
"v  c #783451",
"b  c #6B3D53",
"n  c #434641",
"m  c #484541",
"M  c #584B45",
"N  c #4F504A",
"B  c #52524D",
"V  c #595953",
"C  c #7A4547",
"Z  c #7A5749",
"A  c #6C4555",
"S  c #724C5D",
"D  c #7A4655",
"F  c #685559",
"G  c #795751",
"H  c #7E6C5F",
"J  c #755463",
"K  c #6D6968",
"L  c #79646A",
"P  c #7E7461",
"I  c #777A76",
"U  c #902B1D",
"Y  c #8B381C",
"T  c #A7361C",
"R  c #81392D",
"E  c #A03B2F",
"W  c #82452B",
"Q  c #91482B",
"!  c #844939",
"~  c #994A3C",
"^  c #8F5B38",
"/  c #975435",
"(  c #9B5A25",
")  c #A25D2E",
"_  c #A45C39",
"`  c #956021",
"'  c #96623D",
"]  c #9C703D",
"[  c #8A603C",
"{  c #BA7339",
"}  c #AD6932",
"|  c #C96E1B",
" . c #85264D",
".. c #8B2A4D",
"X. c #852848",
"o. c #883749",
"O. c #963349",
"+. c #8B2753",
"@. c #8C2954",
"#. c #862951",
"$. c #912655",
"%. c #932A55",
"&. c #9C2B51",
"*. c #942A58",
"=. c #8E3250",
"-. c #9A3A58",
";. c #962D4F",
":. c #A53B48",
">. c #B52E57",
",. c #BE335C",
"<. c #A92C52",
"1. c #B93A61",
"2. c #C2335B",
"3. c #CE3A66",
"4. c #D33A65",
"5. c #824443",
"6. c #8A4746",
"7. c #914844",
"8. c #895B4E",
"9. c #9B5B4B",
"0. c #945648",
"q. c #895554",
"w. c #9A555B",
"e. c #965D57",
"r. c #874155",
"t. c #BC4D4F",
"y. c #A55C49",
"u. c #A14C5E",
"i. c #A25B57",
"p. c #9D6743",
"a. c #9B6556",
"s. c #A0644D",
"d. c #A46B4C",
"f. c #AC644E",
"g. c #B2634F",
"h. c #AA724B",
"j. c #A67742",
"k. c #BC7448",
"l. c #A26750",
"z. c #A46B54",
"x. c #A96E54",
"c. c #A77157",
"v. c #AB7455",
"b. c #AA7359",
"n. c #AD7A5E",
"m. c #AA7957",
"M. c #BA745B",
"N. c #B17C5C",
"B. c #B77757",
"V. c #BA6E5B",
"C. c #835466",
"Z. c #A55561",
"A. c #896868",
"S. c #89736E",
"D. c #977561",
"F. c #847276",
"G. c #8D7276",
"H. c #916770",
"J. c #A66B68",
"K. c #A97865",
"L. c #B67A68",
"P. c #C37549",
"I. c #C87B57",
"U. c #CA6B58",
"Y. c #DD476D",
"T. c #CE446C",
"R. c #E24575",
"E. c #E54F6D",
"W. c #EE7C79",
"Q. c #DA983E",
"!. c #B5805A",
"~. c #BD855B",
"^. c #8C8376",
"/. c #B98568",
"(. c #A18170",
"). c #BC8870",
"_. c #CA8548",
"`. c #C38758",
"'. c #D49959",
"]. c #E29050",
"[. c #DCA452",
"{. c #E1BF54",
"}. c #E3B841",
"|. c #C88767",
" X c #D38F6E",
".X c #C6916D",
"XX c #C49373",
"oX c #C8977A",
"OX c #DB9772",
"+X c #DFAC6D",
"@X c #DFA472",
"#X c #E2AB60",
"$X c #8D7E83",
"%X c #E74F80",
"&X c #E95084",
"*X c #858A84",
"=X c #898886",
"-X c #97958E",
";X c #9A9B94",
":X c #928B8C",
">X c #A89587",
",X c #B79685",
"<X c #A39E93",
"1X c #A5A499",
"2X c #B5B09F",
"3X c #BDB6A6",
"4X c #D1AC8F",
"5X c #CEAC95",
"6X c #E0AB85",
"7X c #C1B0A4",
"8X c #E9CE9A",
"9X c #E6D3B8",
"0X c #E2DCC4",
"qX c #EAE4CF",
/* pixels */
"                                                  ",
"                                                  ",
"                                                  ",
"                    1.X. .                        ",
"              %X&XY.l $ < j &.                    ",
"            R.R.4.... . @ 5 6 O.T.                ",
"        Y.Y.4.,.*.7 X @ 5 W Q / :.                ",
"        3.>.>.%.R 4 @ : W _ _ { k.t.              ",
"      2.<.&.&.%.q t 5 y / k._.Q.'.`.              ",
"    <.&.@.@.$.=.! y y ! ] k.'.'.#X#XU.            ",
"     . .@.@.@.6.^ ^ ' ' h._.'.'.'.@XV.            ",
"     .+.@.%.;.0.' ] d.h.m.~.|.`.B.L.w.            ",
"    #.@.%.*.-.p.h.h.!.!.m.m.d.Z 1 D.9.k           ",
"  ..+.%.*.$.u.!.~./.!.h.n.c.a.H w P L.o.          ",
"  #.+.%.*.$.Z..X).(.r i m.n.a.>X>X,XoXZ.          ",
"    +.%.$.$.Z.oX).>Xe w D./.d.K.L.|.6XJ.          ",
"    +.*.*.$.u.oXoX3X<X^.K.N.a.9.M.|. Xi.          ",
"    +.*.*.*.-.oX,X5X).K.l.x.x.z.x.f.y.7.          ",
"    ..@.*.*.*.).oX|.M.y.y.s.b.l.x.z.9.o.          ",
"    &.@.$.$.*.L.XX|.V.g.f.l.x.y.s.a.6.            ",
"      O.#.+.+.u.).)./.N.v.v.y.~ 9.8.              ",
"        O...#.#.w.L./.L.K.b.b.z.e.                ",
"             .l l x q.e.a.e.q.c                   ",
"              j * & % b z , & & 7 g               ",
"              g g J S > % > S L z - -.            ",
"                v :X$Xg , S :X=XJ c =.            ",
"                  ;X=Xc v G.$XI A F.H.5X          ",
"                  ;X*XJ l k k d = F.7XqX          ",
"                  1X*XK l j s s * A.1X0XqX        ",
"                  1X;XI c j s d = l G.2X9X9X      ",
"                  ,X:XK S j s d s R o.S.4X9X8X    ",
"                    F.G q h s d s 9 =.J.|.OX@X#X  ",
"                    c 9.0.C z A v -.A.e.I.I.I.    ",
"                    j o.0.5.8 7 C.A.5.7.P.        ",
"                    k j j 7 > 7 D S.C 7.P.        ",
"                    j s d & 7 x Z F.C { [.        ",
"                  o.s s f h 5.p q q D k.].        ",
"                  l h x o.C 5.R Y 3 h -.E.W.      ",
"                  5.6.7.7.R E U 3 2 q _ Q.}.{.    ",
"              X ) ~ C q.G Q T Y 0 e i 8.h..X.X    ",
"            e O t     S.L { | ( M F 1 : W _       ",
"            m +       D W Q | ( 2 M +             ",
"              +     x x ` y 6 # 2 M w o           ",
"                    7 b 0 < ; # M M m O           ",
"                    8 9 0 5 5 # M B N O           ",
"                    a h.j.] [ 5 r V V o           ",
"                      (.q.C 0 ; 4 i 1             ",
"                                                  ",
"                                                  ",
"                                                  "
};
